<svg xmlns="http://www.w3.org/2000/svg" width="32.008" height="32.008" viewBox="0 0 32.008 32.008"><defs><style>.a{fill:#fdc403;}.b{fill:#0f0c75;}</style></defs><g transform="translate(0 -0.001)"><g transform="translate(6.296 10.717)"><path class="a" d="M101.772,171.6a.625.625,0,1,0,0,.884A.626.626,0,0,0,101.772,171.6Z" transform="translate(-100.704 -171.42)"/></g><g transform="translate(0 24.506)"><path class="b" d="M15.829,395.471a2.189,2.189,0,0,0-1.763-3.484H3.438a2.187,2.187,0,0,0-1.762,3.483A3.128,3.128,0,0,0,0,398.238v.625a.625.625,0,0,0,.625.625H16.879a.625.625,0,0,0,.625-.625v-.625A3.128,3.128,0,0,0,15.829,395.471ZM2.775,393.512a.932.932,0,0,1,.663-.275H14.066a.938.938,0,1,1,0,1.875H3.438a.938.938,0,0,1-.663-1.6ZM1.25,398.238a1.878,1.878,0,0,1,1.875-1.875H14.378a1.878,1.878,0,0,1,1.875,1.875Z" transform="translate(0 -391.987)"/></g><g transform="translate(0.001 0.001)"><path class="b" d="M31.446,26.265a3.937,3.937,0,0,0-.753-.865l-2.921-2.548a.63.63,0,0,0-.079-.1.623.623,0,0,0-.169-.12L25.757,21.1,17.58,13.963a1.872,1.872,0,0,0-.549-2.986l.756-.756A2.5,2.5,0,0,0,20.2,9.574a2.5,2.5,0,0,0,0-3.537L14.9.734a2.5,2.5,0,0,0-4.183,2.414L3.167,10.695a2.516,2.516,0,0,0-.647-.085A2.5,2.5,0,0,0,.752,14.879l5.3,5.3a2.5,2.5,0,0,0,4.183-2.414l.755-.755a1.876,1.876,0,0,0,2.987.548L22.69,27.568a.628.628,0,0,0,.085.106c.011.011.023.021.035.032l2.6,2.982c.065.076.133.151.205.223a3.718,3.718,0,0,0,2.643,1.1,3.837,3.837,0,0,0,.526-.036,3.783,3.783,0,0,0,2.791-1.932A3.7,3.7,0,0,0,31.446,26.265ZM12.245,1.618a1.25,1.25,0,0,1,1.768,0l5.3,5.3A1.25,1.25,0,0,1,17.55,8.69l-5.3-5.3h0A1.251,1.251,0,0,1,12.245,1.618ZM8.709,19.3a1.252,1.252,0,0,1-1.768,0l-5.3-5.3A1.25,1.25,0,0,1,3.4,12.226l5.305,5.305A1.251,1.251,0,0,1,8.709,19.3Zm2.632-4.4L9.593,16.647l-5.3-5.3L11.361,4.27l5.3,5.3-1.751,1.751-.017.017-3.535,3.535Zm2.232,1.3,0,0-.44.44a.625.625,0,0,1-.892-.876l3.551-3.551a.625.625,0,0,1,1.061.449.619.619,0,0,1-.183.442l-.438.438-.009.009Zm1.295.474,1.827-1.827L24.431,21.6,21.608,24.42Zm7.563,8.689,2.944-2.944.944.824-3.066,3.066Zm8.048,4.064a2.543,2.543,0,0,1-1.871,1.3,2.484,2.484,0,0,1-2.113-.708c-.048-.048-.094-.1-.137-.149l-.006-.007-2.274-2.613,3.188-3.188,2.61,2.277.006.005a2.691,2.691,0,0,1,.516.594A2.468,2.468,0,0,1,30.478,29.429Z" transform="translate(-0.021 -0.001)"/></g><g transform="translate(8.064 6.297)"><path class="a" d="M132.7,100.89a.625.625,0,0,0-.884,0l-2.652,2.652a.625.625,0,1,0,.884.884l2.652-2.652A.625.625,0,0,0,132.7,100.89Z" transform="translate(-128.985 -100.707)"/></g></g></svg>