<svg xmlns="http://www.w3.org/2000/svg" xmlns:xlink="http://www.w3.org/1999/xlink" width="1596.187" height="2315.55" viewBox="0 0 1596.187 2315.55">
  <defs>
    <clipPath id="clip">
      <use xlink:href="#fill"/>
    </clipPath>
    <clipPath id="clip-2">
      <use xlink:href="#fill-2"/>
    </clipPath>
    <clipPath id="clip-3">
      <use xlink:href="#fill-3"/>
    </clipPath>
    <clipPath id="clip-4">
      <use xlink:href="#fill-4"/>
    </clipPath>
  </defs>
  <g id="Group_14627" data-name="Group 14627" transform="translate(-3203.751 15831.988)">
    <path id="Path_13352" data-name="Path 13352" d="M-6968.474,13364.425s189.021,99.511,238.695,147.146c1.093,1.048,4.983,5.53,6.206,6.753,46.667,46.635,61.908,92.194,61.908,92.194s-70.618,87.543-142.474,137.759-103.093,33-144.944,63.111-22.462,57.354-22.462,57.354l-6.59,41.444,23.374-28.76,22.158-5.347-8.244,50.076-71.312,17.271-30.663-24.339-12.824-37.662-4.232,23.376s25.178,30.185,17.056,38.625-49.547-4.867-49.547-4.867-26.137-40.932-17.975-33.758,51.165,68.846,32.647,67.315-78.574-21.677-78.574-21.677l-24.823-40.255-9.51-49.4,28.9-49.4,118.882-79.238,101.975-75.037,44.147-33.02-44.147,33.02-131.871-110.295,47.626-146.912Z" transform="matrix(0.995, -0.105, 0.105, 0.995, 9956.379, -29061.723)" fill="#ffe4d3" stroke="#000" stroke-linecap="round" stroke-linejoin="round" stroke-width="15"/>
    <g id="Group_14615" data-name="Group 14615" transform="translate(3237.526 -14859.348) rotate(-20)">
      <path id="Path_12785" data-name="Path 12785" d="M383.494,453.706h122.6l41.936-13.69,28.637-84.453v-70.9s8.006,36.74,30.55,55.72c22.205,18.7,27.2,37.933,55.93,37.277.081,0-.443,11.45,0,11.43,11.735,5.541,22.121,3.261,30.52,3.869,22.651,1.641,31.481-6.691,31.481-6.691l-12.573-17.521-20.354-28.363s-6.436-83.572,13.767-111.109,90.125-108.337,90.125-108.337-34.989-64.6-90.941-94.812S627.221,2.4,572.3.1,401.166,41.5,401.166,41.5L228.381,73.2s79.56,94.149,24.043,123.692Z" transform="translate(416.272 46.955) rotate(6)" fill="#fdc403" stroke="#000" stroke-linecap="round" stroke-linejoin="round" stroke-width="15"/>
      <path id="Path_12733" data-name="Path 12733" d="M18.4,202.034c.6-4.826,48.734-79.048,95.618-127.556,50.37-52.116,120.8-82.884,124.169-72.457,6.492,20.091,25.771,20.919,8.459,45.83-7.375,10.612-62.674,17.289-100.471,54.976C107.5,141.392,52.629,214.632,38.315,236.836c-1.228,1.9,13.8,14.738,27.9,18.564,17.028,4.621,11.492-7.636,10.5-6.947-.455.344-44.209-5.83-44.57-6.417C19.825,236.113,17.162,212.066,18.4,202.034Z" transform="translate(973.571 268.236) rotate(-9)" fill="#fdc403" stroke="#000" stroke-width="15"/>
    </g>
    <g id="Group_14624" data-name="Group 14624">
      <g id="Group_14614" data-name="Group 14614" transform="translate(2699 -15919)">
        <g id="Group_14594" data-name="Group 14594" transform="matrix(0.995, -0.105, 0.105, 0.995, 28.489, 47.998)">
          <path id="Path_13335" data-name="Path 13335" d="M-6268.207-6427.287s2.761-71.719-20.168-124.487-10.667-55.361,0-63.547,60.1,8.667,67.39,41.532,8.183,83.167,8.183,83.167Z" transform="matrix(0.966, 0.259, -0.259, 0.966, 4959.531, 8559.971)" fill="#ffe4d3" stroke="#000" stroke-linecap="round" stroke-linejoin="round" stroke-width="15"/>
          <path id="Path_13334" data-name="Path 13334" d="M-5911.473-6138.254c-9.314,15.718-8.219,53.073-22.9,75.826-16.673,25.843-41.54,55.766-63.455,80.892-29.855,34.23-98.816,73.6-133.374,94.157-41.108,24.456-79.455,39.842-118.559,24.013-52.714-21.34-81.3-31.681-73.687-152.394s45.025-240.71,45.025-240.71,19.031-79.091,29.619-108.777c36.635-102.713,67.7-187.528,90.792-201.8,29.677-18.346,108.146-33.552,122.453-22.613s28.3,31.588,17.569,39.322,18.3,7.863,24.9,20.146,5.287,39.525-8.287,39.273c-8.852-.165,14.763-.908,23.583,11.325,4.45,6.167,5.185,25.712-6.4,29.775-18.873,6.619-9.333,12.046-1.978,18.82,5.271,4.856,8.721,12.066,9.041,16.263.737,9.692-7.918,41.834-65.125,54.718s24.268-35.9,24.268-35.9-97.3,72.738-114.289,72.686,0,139.454,0,139.454-4.95-39.488,5.225-56.1c11.649-19.013,39.888-16.613,58.091-31.972,33.646-28.391,80.2-66.071,80.2-66.071l139.752,199.662S-5859.335-6226.242-5911.473-6138.254Z" transform="translate(6741.342 7264.021)" fill="#ffe4d3" stroke="#000" stroke-linecap="round" stroke-linejoin="round" stroke-width="15"/>
          <path id="Path_13336" data-name="Path 13336" d="M-5077-6760.6s-66.384,3.112-79.654,15.3" transform="translate(5794.333 7479.444)" fill="none" stroke="#000" stroke-linecap="round" stroke-width="15"/>
          <path id="Path_13337" data-name="Path 13337" d="M-5053.521-6699.692s-62.133-7.525-86.184,10.965" transform="translate(5792.086 7472.934)" fill="none" stroke="#000" stroke-linecap="round" stroke-width="15"/>
          <path id="Path_13338" data-name="Path 13338" d="M-5051.748-6639.917s-58.9-12.24-73.916,0" transform="translate(5790.625 7462.895)" fill="none" stroke="#000" stroke-linecap="round" stroke-width="15"/>
          <path id="Path_13339" data-name="Path 13339" d="M-5183.782-6374.223s4.8,149.31-5.523,219.893" transform="translate(5792.961 7435.079)" fill="none" stroke="#000" stroke-linecap="round" stroke-width="15"/>
        </g>
        <path id="Path_13340" data-name="Path 13340" d="M-5217.018-6489.747a40.384,40.384,0,0,0,20.569,0c11.626-2.921,19.978-10.654,25.938-11.685" transform="translate(5900.438 7422.208)" fill="none" stroke="#000" stroke-linecap="round" stroke-width="15"/>
      </g>
      <g id="Group_14616" data-name="Group 14616" transform="translate(3078.131 -16130.591)">
        <g id="Group_12480" data-name="Group 12480" transform="translate(200.843 904.442)">
          <g id="Group_12478" data-name="Group 12478" transform="translate(0 0)">
            <path id="Path_12296" data-name="Path 12296" d="M112.7,581.448c153.516,32.429,260.279,72.616,505.942-99.793,30.662-177.044-40.282-299.67-93.268-363.6-8.188-9.879-43.351-28.151-60.161-49.181C438.412,35.34,426.314-4.9,404.047-26.05c-10.532-10-34.708-10.143-34.708-10.143L146.634,7.1l-13.117,2.55-13.564,2.637L107.376,39.932,0,159.3S7.543,394.292,112.7,581.448Z" transform="translate(475.849 93.316) rotate(11)" fill="#fdc403" stroke="#000" stroke-linecap="round" stroke-linejoin="round" stroke-width="15"/>
            <path id="Path_12722" data-name="Path 12722" d="M61.829,0,0,20.359l180.287,161.06,32.272-32.367Z" transform="matrix(0.766, 0.643, -0.643, 0.766, 942.531, 235.636)" fill="#fdc403"/>
            <path id="Path_12718" data-name="Path 12718" d="M339.042,102.755C295.3,43.925,214.982,9.734,214.982,9.734L173.664,0S16.483,191.213,1.385,183.214,97.715,316.464,185.267,326.2s150.517,67.964,150.517,67.964l54.161-149.114S382.783,161.586,339.042,102.755Z" transform="translate(189.935 415.764) rotate(-74)" fill="#fdc403" stroke="#000" stroke-linecap="round" stroke-linejoin="round" stroke-width="15"/>
            <path id="Path_12719" data-name="Path 12719" d="M0,0" transform="translate(933.313 84.131) rotate(11)" fill="none" stroke="#707070" stroke-width="15"/>
            <path id="Path_12783" data-name="Path 12783" d="M214.473,0l90.7,21.792L72.255,169.08,0,120.56Z" transform="translate(412.61 249.153) rotate(20)" fill="#fdc403"/>
            <path id="Path_12721" data-name="Path 12721" d="M91.185,4.94,228.8,32.434,7.028,206.2,0,25.206,19.608-12.431Z" transform="matrix(0.799, 0.602, -0.602, 0.799, 597.095, 132.347)" fill="#fdc403"/>
            <path id="Path_12738" data-name="Path 12738" d="M-12396.689,10778.371s164.352,123.32,403.363,13.935c.664,302.006,5.832,411.735,5.832,411.735l-424.584,19.748Z" transform="translate(12920.808 -10509.836)" fill="#0f0c75" stroke="#000" stroke-linecap="round" stroke-linejoin="round" stroke-width="15"/>
            <path id="Path_12732" data-name="Path 12732" d="M.135,180.559C1.552,171.421,211.3-16.99,218.242,1.242s27.962,18.836,8.92,41.638S25.238,220.31,16.97,209.04-1.281,189.7.135,180.559Z" transform="translate(399.769 235.301) rotate(87)" fill="#fdc403" stroke="#000" stroke-width="15"/>
          </g>
        </g>
        <path id="Path_12771" data-name="Path 12771" d="M4.427.088s-9.565,165.449-.576,293.446S48.766,529.419,48.766,529.419l49.013,20.27S58.286,430.874,49.228,293.446,49.8,0,49.8,0Z" transform="matrix(0.985, 0.174, -0.174, 0.985, 744.062, 1020.316)" fill="#0f0c75" stroke="#000" stroke-width="15"/>
        <path id="Path_12772" data-name="Path 12772" d="M106.568.091s10.8,161.011.5,285.575S55.813,515.217,55.813,515.217L0,534.938S45.022,419.314,55.407,285.575,54.9,0,54.9,0Z" transform="matrix(0.985, -0.174, 0.174, 0.985, 1005.807, 1051.821)" fill="#0f0c75" stroke="#000" stroke-width="15"/>
        <g id="Rectangle_5092" data-name="Rectangle 5092" transform="translate(909.72 1441.795)" fill="#fdc403" stroke="#fdc403" stroke-width="15">
          <rect id="fill" width="11.058" height="11.058" rx="5.529" stroke="none"/>
          <path d="M0,3.558211326599121h11.058211326599121M7.5,0v11.058211326599121M11.058211326599121,7.5h-11.058211326599121M3.558211326599121,11.058211326599121v-11.058211326599121" fill="none" clip-path="url(#clip)"/>
        </g>
        <g id="Rectangle_5095" data-name="Rectangle 5095" transform="translate(909.72 1454.696)" fill="#fdc403" stroke="#fdc403" stroke-width="15">
          <rect id="fill-2" width="11.058" height="11.058" rx="5.529" stroke="none"/>
          <path d="M0,3.558211326599121h11.058211326599121M7.5,0v11.058211326599121M11.058211326599121,7.5h-11.058211326599121M3.558211326599121,11.058211326599121v-11.058211326599121" fill="none" clip-path="url(#clip-2)"/>
        </g>
        <g id="Rectangle_5093" data-name="Rectangle 5093" transform="translate(922.62 1441.795)" fill="#fdc403" stroke="#fdc403" stroke-width="15">
          <rect id="fill-3" width="11.058" height="11.058" rx="5.529" stroke="none"/>
          <path d="M0,3.558211326599121h11.058211326599121M7.5,0v11.058211326599121M11.058211326599121,7.5h-11.058211326599121M3.558211326599121,11.058211326599121v-11.058211326599121" fill="none" clip-path="url(#clip-3)"/>
        </g>
        <g id="Rectangle_5094" data-name="Rectangle 5094" transform="translate(922.62 1454.696)" fill="#fdc403" stroke="#fdc403" stroke-width="15">
          <rect id="fill-4" width="11.058" height="11.058" rx="5.529" stroke="none"/>
          <path d="M0,3.558211326599121h11.058211326599121M7.5,0v11.058211326599121M11.058211326599121,7.5h-11.058211326599121M3.558211326599121,11.058211326599121v-11.058211326599121" fill="none" clip-path="url(#clip-4)"/>
        </g>
        <path id="Path_12740" data-name="Path 12740" d="M201.842,113.292v-56.2h79.569s41.3,23,8.1,56.2" transform="translate(672.827 1280.08)" fill="none" stroke="#fdc403" stroke-linecap="round" stroke-linejoin="round" stroke-width="15"/>
        <path id="Path_12741" data-name="Path 12741" d="M114.947,405.028l62.045-26.121L230.3,405.028a46.655,46.655,0,0,1,2.425,30.133c-3.676,13.133-20.96,24.068-30.985,24.611-56.59.231-71.84,0-71.84,0V433.145" transform="translate(744.036 1029.862)" fill="none" stroke="#fdc403" stroke-linecap="round" stroke-linejoin="round" stroke-width="15"/>
      </g>
    </g>
    <path id="Path_13349" data-name="Path 13349" d="M-16493.9,4653.22v26.757l-4.271,10.607,16.082,6.416-16.082-10.41s-21.988,22.767-18.109,43.766c1.566,8.473,40.236,36.255,54.412,41.309,47.73,17.012,123.692,17.724,159-23.857,22.905-26.977,14.033-46.917-3.28-53.973-4.067-1.657-19.568,8.914-21.762,7.231-2.213-1.7,22.21-10.158,21.762-11.521-.723-2.194-.222-6.358.892-11.386,2.383-10.752,7.807-24.938,7.807-24.938Z" transform="translate(20409.184 -19812.123)" fill="#ffe4d3" stroke="#000" stroke-linecap="round" stroke-linejoin="round" stroke-width="15"/>
    <g id="Group_14617" data-name="Group 14617" transform="translate(3252.284 -16342.063)">
      <path id="Path_12289" data-name="Path 12289" d="M-14386.469,7777.112s-19.218-3.031-33.716,4.44a25.851,25.851,0,0,0-13.82,17.838c-.764,3.333-1.408,5.99-2.02,8.34-4.071,15.676-2.314-1.208-2.314-1.208a56.751,56.751,0,0,0-11.75,3.763c-7.21,3.154-16.187,9.042-19.6,19.135-6.271,18.554-48.224,102.885,70.654,234.514,19.47,25.113,72.189,84.653,90.911,97.776,18.6,13.039,42.205,30.255,84.331,25.786s74.647-39.884,85.882-57.955,31.65-41.6,55.435-95.144,35.2-80.157,37.994-104.737c5.96-52.4-12.779-153.92-27.737-184.069-6.612-13.325,7.369,57.311,10.771,42.128,4.18-18.668-1.047-53.436-10.148-78.313-16.312-44.583-41.44-139.76-41.44-139.76l-167.275-70.952-145.854,83.46-34.9,137.865,13.919,71.607s20.656-12.557,35.824-16.186S-14386.469,7777.112-14386.469,7777.112Z" transform="translate(16266.53 -4060.123) rotate(11)" fill="#ffe4d3" stroke="#000" stroke-linecap="round" stroke-linejoin="round" stroke-width="15"/>
      <g id="Group_12464" data-name="Group 12464" transform="translate(297.493 -95.994) rotate(11)">
        <g id="Group_12462" data-name="Group 12462" transform="translate(542.266 937.772)">
          <path id="Path_12282" data-name="Path 12282" d="M-14394.937,7823.308s119.973,69.792,212.447-21.6c1.15,80.561,34.289,277.857-97.439,264.021C-14282.683,7943.035-14394.937,7823.308-14394.937,7823.308Z" transform="translate(14394.937 -7801.712)" fill="#191919"/>
          <path id="Path_12283" data-name="Path 12283" d="M-14337.855,7855.545c20.382,30.334,23.5,76.8,40.945,73.056s15.028-20.232,11.361-29.723-11.361-6.2-11.361-6.2,15.028-6.7,21.146,0,12.423,24.525,27.851,19.166,18.1-7.548,23.929-19.166-.685-21.3,0-27.886,10.354,14.795,31.02-4.6c3.222-1.981,0-45.818,0-45.818S-14242.946,7871.061-14337.855,7855.545Z" transform="translate(14393.831 -7802.033)" fill="#fff"/>
          <path id="Path_12284" data-name="Path 12284" d="M-14241.41,8085.062c-4.173-5.762-25.881-24.146,9.985-55.123s35.113-5.042,35.113-5.042-3.472,22.907-14.732,39.3C-14221.341,8079.19-14239.4,8087.845-14241.41,8085.062Z" transform="translate(14395.556 -7838.027)" fill="#de0044"/>
        </g>
        <g id="Group_12463" data-name="Group 12463" transform="translate(492.677 862.835)">
          <path id="Path_12278" data-name="Path 12278" d="M44.15.115S28.541.077,17.527,9.842.717,31.036.1,39.174" transform="matrix(0.966, 0.259, -0.259, 0.966, 10.041, 40.517)" fill="none" stroke="#000" stroke-linecap="round" stroke-width="15"/>
          <path id="Path_12279" data-name="Path 12279" d="M0,.005A35.438,35.438,0,0,1,23.063,8.724c4.15,3.7,5.993,11.29,9.581,18.3" transform="matrix(0.966, -0.259, 0.259, 0.966, 281.06, 8.549)" fill="none" stroke="#000" stroke-linecap="round" stroke-width="15"/>
          <path id="Path_12280" data-name="Path 12280" d="M-14416.7,7791.217a185.408,185.408,0,0,0,20.7,27.627c1.5,1.674,3.288,3.581,5.16,5.489,9.6,9.785,21.755,19.693,35.63,25.883,45.172,20.152,115.017,18.923,177.907-37.059,17.026-15.157,29.176-43.388,45.5-65.567" transform="translate(14436.447 -7732.143)" fill="none" stroke="#000" stroke-linecap="round" stroke-width="15"/>
          <path id="Path_12281" data-name="Path 12281" d="M-14421.094,7817.1s120.462,100.593,131.129,249.762c103.479,3.983,101.22-109.437,92.6-255.3" transform="translate(14458.383 -7732.915)" fill="none" stroke="#000" stroke-linecap="round" stroke-linejoin="round" stroke-width="15"/>
        </g>
      </g>
      <path id="Path_12285" data-name="Path 12285" d="M-14368.178,7756.725s24.908-22.266,49.572-11.167" transform="translate(12490.785 -10571.672) rotate(-16)" fill="none" stroke="#000" stroke-linecap="round" stroke-width="12"/>
      <path id="Path_12286" data-name="Path 12286" d="M-14368.179,7758.111s21.832-24.429,43.449-12.252" transform="translate(16888.451 -1256.963) rotate(21)" fill="none" stroke="#000" stroke-linecap="round" stroke-width="12"/>
      <path id="Path_12787" data-name="Path 12787" d="M-14378.492,7783.181c7.624-22.25,23.145-31.132,23.145-31.132.063-.071,19.659-22.62,51.764-4.535" transform="translate(12355.015 12504.602) rotate(74)" fill="none" stroke="#000" stroke-linecap="round" stroke-width="15"/>
      <path id="Path_12287" data-name="Path 12287" d="M-14285.2,7718.005s-35.223,44.384-31.293,53.493,8.223,12.263,23.206,9.121,8.527-3.361,19.4-3.683,13.783-16.88,13.783-16.88" transform="translate(15443.597 -6135.107) rotate(3)" fill="none" stroke="#000" stroke-linecap="round" stroke-linejoin="round" stroke-width="12"/>
      <path id="Path_12288" data-name="Path 12288" d="M-14333.238,7822.9l11.365-31.54,1.6,22.3,8.081-27.318-2.117,25.871,7.887-24.186v25.634l2.382-5.943,6.478-21.375,2.5,29.22,5.135-24.2,8.084,24.2-2.673-27.535,11.021,25.634V7786.34l9.329,27.318" transform="translate(16286.904 -3998.862) rotate(11)" fill="none" stroke="#000" stroke-linecap="round" stroke-linejoin="round" stroke-width="15"/>
      <g id="Component_12_73" data-name="Component 12 – 73" transform="translate(689.403 735.37)">
        <path id="Path_12786" data-name="Path 12786" d="M3317.351,4377.62s-27.314-49.067,0-81.395c31.117-29.957,47.1,9.276,47.1,24.3s3.165,12.992-16.368,57.091C3324.133,4380.641,3317.351,4377.62,3317.351,4377.62Z" transform="translate(-3305.211 -4285.248)" fill="#fff" stroke="#000" stroke-width="10"/>
        <ellipse id="Ellipse_382" data-name="Ellipse 382" cx="20.5" cy="25.5" rx="20.5" ry="25.5" transform="translate(6.584 42.349)"/>
        <circle id="Ellipse_384" data-name="Ellipse 384" cx="4" cy="4" r="4" transform="translate(31.584 58.349)" fill="#fff"/>
      </g>
      <g id="Component_12_74" data-name="Component 12 – 74" transform="matrix(0.966, -0.259, 0.259, 0.966, 783.239, 744.758)">
        <path id="Path_12786-2" data-name="Path 12786" d="M3317.351,4377.62s-27.314-49.067,0-81.395c31.117-29.957,47.1,9.276,47.1,24.3s3.165,12.992-16.368,57.091C3324.133,4380.641,3317.351,4377.62,3317.351,4377.62Z" transform="translate(-3305.211 -4285.248)" fill="#fff" stroke="#000" stroke-width="10"/>
        <ellipse id="Ellipse_382-2" data-name="Ellipse 382" cx="20.5" cy="25.5" rx="20.5" ry="25.5" transform="translate(6.584 42.349)"/>
        <circle id="Ellipse_384-2" data-name="Ellipse 384" cx="4" cy="4" r="4" transform="translate(31.584 58.349)" fill="#fff"/>
      </g>
    </g>
    <path id="Path_13350" data-name="Path 13350" d="M-4083.364-15581.558s6.893,31.268,15.418,58.931c5.559,18.038-8.243,31.824,3.881,35.45s31.241-9.485,33.516-29.844,0-26.979,0-26.979,47.938-20.406,52.794-78.2-41.695-82.174-41.695-82.174,33.31-43.08,6.867-80.012-55.362-44.007-55.362-44.007,10.315-61.987-39.17-87.591-89.792-2.545-89.792-2.545-26.905-31.089-70.766-30.479-69.548,30.479-69.548,30.479-51.373-23.531-91.985,2.545-37.376,87.591-37.376,87.591-42.187,5.938-54.015,50.076,16.2,73.942,16.2,73.942-28.942,16.542-37.825,58.331,23.035,89.5,21.627,94.758c-4.8,6.742-12.789,22.286-9.048,34.264,6.5,20.82,25.246,29.844,25.246,29.844s-3.9-49.232,0-64.107c9.735-37.138,29.276-70.639,32.23-70.915,47.656-4.462,22.258,4.356,22.258,4.356l7.551-35.316v-60.77s43.053-3.662,68.1-27.968,16.488-38.03,27.87-53.154c.148.074,34.47,21.946,69.548,21.946s55.006-12.283,70.766-21.946c-6.479,23.487,24.559,48.839,43.95,64.521s64.544,23.217,64.544,23.217l14.223,85.113Z" transform="translate(8297.801 124.526)" fill="#191919" stroke="#000" stroke-linecap="round" stroke-linejoin="round" stroke-width="15"/>
    <path id="Path_13351" data-name="Path 13351" d="M-14093.518,7735.214c32.154-15.376,42.311-6.411,30.994,29.674-6.711,21.4-6.019,42.747-10.18,53.6-2.7,7.032-11.461,7.153-11.461,7.153s-13.252-1.707-18.016-28.668C-14104.979,7781.132-14099.428,7750.525-14093.518,7735.214Z" transform="translate(18320.355 -23230.172)" fill="#ffe4d3" stroke="#000" stroke-width="15"/>
    <g id="Group_14618" data-name="Group 14618" transform="translate(3419.132 -15282.782)">
      <g id="Group_12472" data-name="Group 12472" transform="translate(187.437 1425.698)">
        <path id="Path_12301" data-name="Path 12301" d="M79.592,9.247s-90.467,87.64-78.5,133.2S36.016,235.317,95.1,229.788,284.5,108.809,296.7,73.549,293.4,0,293.4,0Z" transform="translate(43.93 29.27) rotate(11)" fill="#191919" stroke="#191919" stroke-linecap="round" stroke-linejoin="round" stroke-width="15"/>
        <path id="Path_12734" data-name="Path 12734" d="M79.592,9.247s-90.467,87.64-78.5,133.2S36.016,235.317,95.1,229.788,284.5,108.809,296.7,73.549,293.4,0,293.4,0Z" transform="translate(43.93 0) rotate(11)" fill="#4d4d4d" stroke="#191919" stroke-linecap="round" stroke-linejoin="round" stroke-width="15"/>
      </g>
      <g id="Group_12471" data-name="Group 12471" transform="translate(700.545 1384.841)">
        <path id="Path_12302" data-name="Path 12302" d="M232.515,11.043S325.64,116.926,312.362,172,274.284,284.285,212.6,277.638,16.585,131.518,4.412,88.907,9.1,0,9.1,0Z" transform="translate(0 101.454) rotate(-13)" fill="#191919" stroke="#191919" stroke-linecap="round" stroke-linejoin="round" stroke-width="15"/>
        <path id="Path_12735" data-name="Path 12735" d="M232.515,11.043S325.64,116.926,312.362,172,274.284,284.285,212.6,277.638,16.585,131.518,4.412,88.907,9.1,0,9.1,0Z" transform="translate(0 70.558) rotate(-13)" fill="#4d4d4d" stroke="#191919" stroke-linecap="round" stroke-linejoin="round" stroke-width="15"/>
      </g>
      <g id="Group_12476" data-name="Group 12476" transform="translate(99.628 536.99)">
        <g id="Group_12470" data-name="Group 12470" transform="translate(181.03 0) rotate(11)">
          <g id="Group_12469" data-name="Group 12469" transform="translate(27.126 0)">
            <path id="Path_12297" data-name="Path 12297" d="M40.677,229.934S11,385.894,13.464,441.72c.877,19.874,24.249,70.339,37.53,124.7,24.036,98.375,46,215.374,61.434,228.7,23.97,20.691,42.14,23.659,34.486,63.222s-33.08,76.548,72.893,73.228,168.285,39.328,181.63,1.307S365.066,663.383,373.21,598.4c6.4-51.078,10.381-128.427,17.676-152.648,1.869-6.207,16.6,6.058,16.6,6.058s9.357.412,36.493,38.217c15.361,21.4,84.187,227.466,118.086,317.675,4.562,12.139-6.127,25.205-2.825,43.8,3.362,18.928,12.636,34.775,17.381,34.33,15.64-1.457,65.354-3.485,103.207-43.681,59.24-62.9,162.688-60.985,145.964-85.708s-34.193-52.964-27.24-71.279,18.668-190.208-3.223-232.8S748.894,325.73,737.1,300.144s-147.91-175.467-147.91-175.467L598.8,0S455.95,117.275,306.248,149.969,0,130.773,0,130.773Z" transform="translate(0 0)" fill="#0f0c75" stroke="#000" stroke-linecap="round" stroke-linejoin="round" stroke-width="15"/>
          </g>
          <g id="Group_12467" data-name="Group 12467" transform="translate(0 434.069)">
            <path id="Path_12300" data-name="Path 12300" d="M45.87,11.355C45.682-11.6-3.767.015.23,48.4S31.485,150.981,40.544,178.913s47.187,90.018,58.2,59.606,21.381-58.392,2.812-91.514S46.058,34.313,45.87,11.355Z" transform="translate(21.379 85.19)" fill="#0f0c75" stroke="#000" stroke-linecap="round" stroke-linejoin="round" stroke-width="15"/>
            <path id="Path_12299" data-name="Path 12299" d="M0,18.6S39.152-17,50.567,10.3,81.452,91.284,71.553,111.6s-45.238,64.838-54.684,41.158,6.221-61.4-2.994-87.2A432.8,432.8,0,0,1,0,18.6Z" transform="translate(0 0)" fill="#0f0c75" stroke="#000" stroke-linecap="round" stroke-linejoin="round" stroke-width="15"/>
          </g>
          <g id="Group_12468" data-name="Group 12468" transform="translate(640.713 349.032) rotate(-30)">
            <path id="Path_12300-2" data-name="Path 12300" d="M79.8,11.678c.594-22.645,58.166-13.039,52.709,34.812s-38.185,102.317-49.221,130.2S26.7,267.206,14.334,237.634s-24.023-56.773-1.792-90.124S79.21,34.321,79.8,11.678Z" transform="translate(0 84.692)" fill="#0f0c75" stroke="#000" stroke-linecap="round" stroke-linejoin="round" stroke-width="15"/>
            <path id="Path_12299-2" data-name="Path 12299" d="M88.038,17S42.886-16.634,29.106,10.714s-37.4,81-26.167,100.66S54.725,173.605,66.146,149.9s-6.267-60.3,4.918-86.085A394.469,394.469,0,0,0,88.038,17Z" transform="translate(71.59 0)" fill="#0f0c75" stroke="#000" stroke-linecap="round" stroke-linejoin="round" stroke-width="15"/>
          </g>
        </g>
        <g id="Group_12477" data-name="Group 12477" transform="translate(153.75 42.57)">
          <path id="Path_12724" data-name="Path 12724" d="M5.933,121.907c2.151,4.618-4.451-1.041-5.687,7.248-2.973,19.93,21.809,68.488,34.56,78.725,1.35,1.082-2.57-1.51,0,0,49.738,29.2,323.2,113.138,572.257-115.7,16.176-119.219-7.048-88.671-7.048-88.671S266.476,245.188,5.933,121.907Z" transform="translate(47.162 0) rotate(11)" fill="#4d4d4d" stroke="#000" stroke-linecap="round" stroke-linejoin="round" stroke-width="15"/>
          <g id="Path_12725" data-name="Path 12725" transform="translate(112.534 119.736) rotate(11)" fill="#0f0c75" stroke-linecap="round" stroke-linejoin="round">
            <path d="M 58.84711074829102 152.6395874023438 C 58.84629821777344 152.6395874023438 58.84624099731445 152.6395874023438 58.84543228149414 152.6395874023438 C 48.71422576904297 152.6393432617188 38.41804885864258 149.9824066162109 25.46084213256836 144.0246734619141 C 6.368813514709473 135.245849609375 5.396872520446777 32.19688034057617 9.002872467041016 9.803466796875 C 9.060519218444824 9.445437431335449 11.3320779800415 7.499996662139893 19.99313735961914 7.499996662139893 C 31.50540161132813 7.499996662139893 44.97107696533203 10.90958499908447 45.10575485229492 10.94402599334717 C 52.80213928222656 12.19261932373047 60.46940612792969 13.87911987304688 63.85953521728516 15.01252746582031 C 74.19826507568359 46.45977020263672 87.42427062988281 136.9221801757813 79.70394897460938 150.0178375244141 C 71.38546752929688 151.6824798583984 65.20105743408203 152.6395874023438 58.84711074829102 152.6395874023438 Z" stroke="none"/>
            <path d="M 19.99163818359375 15.00001525878906 L 19.99192047119141 15.00001525878906 C 18.23072814941406 15.00001525878906 16.87664794921875 15.09407043457031 15.86126708984375 15.21597290039063 C 12.7728271484375 44.6907958984375 16.21230316162109 127.7385787963867 28.593994140625 137.2104797363281 C 40.68141937255859 142.7682647705078 49.7285270690918 145.1395874023438 58.84524154663086 145.1395874023438 C 63.44729232788086 145.1395874023438 68.0784912109375 144.5592041015625 73.77897644042969 143.5197143554688 C 77.50556945800781 123.2903289794922 66.66973876953125 51.13346862792969 57.89850997924805 21.12400817871094 C 54.34096145629883 20.25120544433594 49.2750244140625 19.23310852050781 44.61367034912109 18.49258422851563 C 44.15527725219727 18.41976928710938 43.69742202758789 18.32524108886719 43.24774169921875 18.21023559570313 C 39.75620651245117 17.31741333007813 28.77191925048828 15.00016784667969 19.99163818359375 15.00001525878906 M 19.99315643310547 0 C 32.58238983154297 0.0002288818359375 46.96395492553711 3.677871704101563 46.96395492553711 3.677871704101563 C 46.96395492553711 3.677871704101563 69.04645538330078 7.176513671875 70.08541870117188 10.0562744140625 C 79.87416839599609 37.18073272705078 99.99763488769531 153.5527038574219 82.36273956298828 157.1327362060547 C 73.92059326171875 158.8462677001953 66.54444885253906 160.1395874023438 58.84525680541992 160.1395874023438 C 48.41255950927734 160.1395874023438 37.38811874389648 157.763671875 22.32766723632813 150.8388824462891 C -3.847007751464844 138.8033447265625 -0.9589691162109375 24.49156188964844 1.598274230957031 8.611129760742188 C 2.673309326171875 1.934555053710938 10.8614501953125 -0.000152587890625 19.99315643310547 0 Z" stroke="none" fill="#000"/>
          </g>
          <g id="Path_12739" data-name="Path 12739" transform="matrix(0.966, -0.259, 0.259, 0.966, 462.154, 137.537)" fill="#0f0c75" stroke-linecap="round" stroke-linejoin="round">
            <path d="M 30.26194763183594 154.1558685302734 C 23.93904304504395 154.1558685302734 17.79742431640625 153.2450866699219 9.54432201385498 151.6606750488281 C 1.830859541893005 138.4224853515625 15.86329364776611 47.05582427978516 26.53538131713867 15.43176555633545 C 30.14653015136719 14.18222332000732 38.45976257324219 12.38332557678223 45.03289031982422 11.30306720733643 C 45.84656524658203 11.12394905090332 59.93271255493164 7.500008106231689 71.65874481201172 7.500008106231689 C 79.43021392822266 7.500008106231689 82.08218383789063 9.147890090942383 82.36695098876953 9.589184761047363 C 85.90706634521484 32.25577163696289 84.20927429199219 136.1939849853516 64.71518707275391 145.2112121582031 C 51.34194946289063 151.397216796875 40.71618270874023 154.1558685302734 30.26194763183594 154.1558685302734 Z" stroke="none"/>
            <path d="M 71.65872955322266 14.99998474121094 C 60.93098068237305 14.99998474121094 47.72008895874023 18.38627624511719 47.58790969848633 18.42048645019531 C 47.15066146850586 18.53363037109375 46.69483947753906 18.6304931640625 46.24919509887695 18.7037353515625 C 41.84728240966797 19.42718505859375 36.30648040771484 20.55564880371094 32.46778106689453 21.52474975585938 C 23.38711547851563 51.65977478027344 11.88192749023438 124.6261138916016 15.49375152587891 145.1302947998047 C 21.11309814453125 146.109619140625 25.69563674926758 146.6558380126953 30.26198196411133 146.6558380126953 C 39.70048141479492 146.6558380126953 49.06258773803711 144.1880645751953 61.3030891418457 138.5485229492188 C 74.38970184326172 129.0959930419922 78.47987365722656 45.15583801269531 75.51670837402344 15.18951416015625 C 74.54806518554688 15.08125305175781 73.28066253662109 14.99998474121094 71.65872955322266 14.99998474121094 M 71.65872192382813 0 C 80.73480224609375 0 88.77062225341797 1.9373779296875 89.80094909667969 8.546340942382813 C 92.29315948486328 24.53056335449219 94.49087524414063 139.7015991210938 67.86387634277344 152.0182342529297 C 52.30110168457031 159.2170562744141 40.99269104003906 161.6558380126953 30.26197052001953 161.6558380126953 C 22.63302612304688 161.6558380126953 15.29689025878906 160.4237976074219 6.927871704101563 158.7935638427734 C -10.93691253662109 155.31298828125 10.22012329101563 37.90048980712891 20.32265853881836 10.49655151367188 C 21.39519500732422 7.587203979492188 43.81662368774414 3.902313232421875 43.81662368774414 3.902313232421875 C 43.81662368774414 3.902313232421875 58.78285980224609 0 71.65872192382813 0 Z" stroke="none" fill="#000"/>
          </g>
          <g id="Path_12727" data-name="Path 12727" transform="translate(270.49 190.155) rotate(-3)" fill="#fdc403" stroke-linecap="round">
            <path d="M 55.97568130493164 104.9523391723633 C 36.49420547485352 104.9523391723633 17.73029708862305 102.5719528198242 8.415706634521484 101.1784439086914 L 7.579408168792725 9.368541717529297 C 18.42446327209473 10.81306934356689 37.77224349975586 12.95258903503418 57.23081588745117 12.95258903503418 L 58.75454330444336 12.94811153411865 C 78.48441314697266 12.83148288726807 97.60356140136719 10.43948459625244 108.3343505859375 8.824334144592285 L 109.16943359375 100.5010604858398 C 98.92131042480469 102.0403671264648 77.65334320068359 104.8283767700195 57.37640762329102 104.9482269287109 L 55.97568130493164 104.9523391723633 Z" stroke="none"/>
            <path d="M 100.9123916625977 17.42710113525391 C 89.7225341796875 18.86317443847656 74.44775390625 20.35548400878906 58.79854202270508 20.44797515869141 L 57.23092269897461 20.45259857177734 C 41.79629516601563 20.45259857177734 26.43559265136719 19.13529205322266 15.15705108642578 17.85602569580078 L 15.85654449462891 94.64866638183594 C 25.79402160644531 95.94438934326172 40.65129089355469 97.45233154296875 55.97580718994141 97.45233154296875 L 57.3320426940918 97.4483642578125 C 73.56886291503906 97.35238647460938 90.50698852539063 95.49713134765625 101.6098937988281 94.00186920166016 L 100.9123916625977 17.42710113525391 M 115.7542724609375 7.62939453125e-06 L 116.7278900146484 106.887092590332 C 116.7278900146484 106.887092590332 86.35930633544922 112.2770385742188 57.42071914672852 112.4480972290039 C 56.94029235839844 112.4509353637695 56.45531845092773 112.4523468017578 55.97580337524414 112.4523468017578 C 27.57145690917969 112.4523468017578 0.9736328125 107.5712738037109 0.9736328125 107.5712738037109 L 1.52587890625e-05 0.6841812133789063 C 1.52587890625e-05 0.6841812133789063 28.76773071289063 5.452590942382813 57.23093414306641 5.452590942382813 C 57.72582244873047 5.452590942382813 58.21566009521484 5.451164245605469 58.7102165222168 5.4482421875 C 87.64877319335938 5.277183532714844 115.7542724609375 7.62939453125e-06 115.7542724609375 7.62939453125e-06 Z" stroke="none" fill="#000"/>
          </g>
        </g>
      </g>
    </g>
  </g>
</svg>
