<svg xmlns="http://www.w3.org/2000/svg" width="19.492" height="23.93" viewBox="0 0 19.492 23.93"><defs><style>.a{fill:#fdc403;}</style></defs><path class="a" d="M64.7,22.386H63.176V3.474A.772.772,0,0,0,62.4,2.7h-5.79V.772A.772.772,0,0,0,55.842,0H50.487a.772.772,0,0,0-.772.772V2.7h-.627a.772.772,0,0,0-.772.772V22.386H46.794a.786.786,0,0,0-.793.735.772.772,0,0,0,.771.809h5.5a.386.386,0,0,0,.386-.386V19.106h-.316a.786.786,0,0,1-.793-.735.772.772,0,0,1,.771-.809H59.15a.786.786,0,0,1,.793.735.772.772,0,0,1-.771.809h-.338v4.439a.386.386,0,0,0,.386.386h5.5a.772.772,0,0,0,.771-.809.786.786,0,0,0-.793-.735ZM53.864,15.97H53a.772.772,0,1,1,0-1.544h.868a.772.772,0,0,1,0,1.544Zm0-2.895H53a.772.772,0,1,1,0-1.544h.868a.772.772,0,0,1,0,1.544Zm0-2.895H53a.772.772,0,1,1,0-1.544h.868a.772.772,0,0,1,0,1.544Zm0-2.895H53a.772.772,0,1,1,0-1.544h.868a.772.772,0,0,1,0,1.544Zm4.583,8.684h-.868a.772.772,0,0,1,0-1.544h.868a.772.772,0,0,1,0,1.544Zm0-2.895h-.868a.772.772,0,0,1,0-1.544h.868a.772.772,0,0,1,0,1.544Zm0-2.895h-.868a.772.772,0,0,1,0-1.544h.868a.772.772,0,0,1,0,1.544Zm0-2.895h-.868a.772.772,0,0,1,0-1.544h.868a.772.772,0,0,1,0,1.544ZM54.2,23.544V19.492a.386.386,0,0,1,.386-.386H56.9a.386.386,0,0,1,.386.386v4.053a.386.386,0,0,1-.386.386H54.588A.386.386,0,0,1,54.2,23.544Z" transform="translate(-46)"/></svg>