<svg xmlns="http://www.w3.org/2000/svg" xmlns:xlink="http://www.w3.org/1999/xlink" width="73" height="68" viewBox="0 0 73 68"><defs><style>.a{fill:url(#a);}.b{fill:#fdc403;}.c{fill:#0f0c75;}.d{fill:#fff;}.e,.f{stroke:none;}.f{fill:#400495;}.g{filter:url(#b);}</style><linearGradient id="a" x1="0.5" x2="0.5" y2="1" gradientUnits="objectBoundingBox"><stop offset="0" stop-color="#0f0c75"/><stop offset="1" stop-color="#49039b"/></linearGradient><filter id="b" x="0" y="0" width="73" height="68" filterUnits="userSpaceOnUse"><feOffset dy="3" input="SourceAlpha"/><feGaussianBlur stdDeviation="3" result="c"/><feFlood flood-color="#3b4b58" flood-opacity="0.2"/><feComposite operator="in" in2="c"/><feComposite in="SourceGraphic"/></filter></defs><g transform="translate(9 6)"><g class="g" transform="matrix(1, 0, 0, 1, -9, -6)"><path class="a" d="M8225,112h15a20,20,0,0,1,20,20v30h-55V132A20,20,0,0,1,8225,112Z" transform="translate(-8196 -106)"/></g><path class="b" d="M8232.651,133.6H8205V122a10,10,0,0,1,10-10h13a10,10,0,0,1,10,10v16.995Z" transform="translate(-8194 -100)"/><circle class="c" cx="3.5" cy="3.5" r="3.5" transform="translate(17 18)"/><circle class="c" cx="3.5" cy="3.5" r="3.5" transform="translate(31 18)"/><g class="d" transform="translate(-8180 -89)"><path class="e" d="M 8207.5 118.4999008178711 C 8207.01171875 118.4999008178711 8206.5576171875 118.3658065795898 8206.205078125 118.1469421386719 C 8206.6025390625 118.3027725219727 8207.0439453125 118.389289855957 8207.5 118.389289855957 C 8207.9560546875 118.389289855957 8208.396484375 118.3030319213867 8208.79296875 118.1476135253906 C 8208.44140625 118.3661117553711 8207.9873046875 118.4999008178711 8207.5 118.4999008178711 Z"/><path class="f" d="M 8207.5 118.9999008178711 C 8206.12109375 118.9999008178711 8204.9990234375 118.1277618408203 8204.9990234375 117.0557479858398 C 8204.9990234375 116.8661880493164 8205.033203125 116.6791687011719 8205.103515625 116.4999084472656 C 8205.416015625 117.3179550170898 8206.400390625 117.889289855957 8207.5 117.889289855957 C 8208.5986328125 117.889289855957 8209.583984375 117.3179550170898 8209.896484375 116.4999084472656 C 8209.9658203125 116.6817016601562 8210 116.8687057495117 8210 117.0557479858398 C 8210 118.1277618408203 8208.87890625 118.9999008178711 8207.5 118.9999008178711 Z"/></g></g></svg>