<svg xmlns="http://www.w3.org/2000/svg" xmlns:xlink="http://www.w3.org/1999/xlink" width="201" height="152" viewBox="0 0 201 152">
  <defs>
    <clipPath id="clip-_1">
      <rect width="201" height="152"/>
    </clipPath>
  </defs>
  <g id="_1" data-name=" 1" clip-path="url(#clip-_1)">
    <g id="Group_14033" data-name="Group 14033" transform="translate(-87.122 -411.969)">
      <g id="coupon" transform="matrix(0.951, -0.309, 0.309, 0.951, 160.811, 478.188)">
        <g id="Group_12696" data-name="Group 12696" transform="translate(0 0)">
          <g id="Group_12695" data-name="Group 12695" transform="translate(0 0)">
            <path id="Path_12269" data-name="Path 12269" d="M47.5,0H2.288A2.291,2.291,0,0,0,0,2.288V9.15a1.879,1.879,0,0,0,.873,1.593A4.7,4.7,0,0,1,3.118,14.76,4.7,4.7,0,0,1,.873,18.776,1.879,1.879,0,0,0,0,20.369v6.862a2.291,2.291,0,0,0,2.288,2.288H47.5a2.291,2.291,0,0,0,2.288-2.288V2.288A2.291,2.291,0,0,0,47.5,0Zm.83,27.231a.83.83,0,0,1-.83.83h-35.9v-.05a.729.729,0,1,0-1.459,0v.05H2.288a.831.831,0,0,1-.83-.83V20.369a.412.412,0,0,1,.182-.353,6.145,6.145,0,0,0,2.936-5.257A6.145,6.145,0,0,0,1.64,9.5a.412.412,0,0,1-.182-.353V2.288a.83.83,0,0,1,.83-.83h7.845v.05a.729.729,0,0,0,1.459,0v-.05H47.5a.831.831,0,0,1,.83.83Z" transform="translate(0 0)" fill="#0f0c75"/>
          </g>
        </g>
        <g id="Group_12698" data-name="Group 12698" transform="translate(10.133 13.251)">
          <g id="Group_12697" data-name="Group 12697" transform="translate(0)">
            <path id="Path_12270" data-name="Path 12270" d="M.729,0A.729.729,0,0,0,0,.729V2.288a.729.729,0,0,0,1.459,0V.729A.729.729,0,0,0,.729,0Z" transform="translate(0)" fill="#0f0c75"/>
          </g>
        </g>
        <g id="Group_12700" data-name="Group 12700" transform="translate(10.133 3.897)">
          <g id="Group_12699" data-name="Group 12699" transform="translate(0 0)">
            <path id="Path_12271" data-name="Path 12271" d="M.729,0A.729.729,0,0,0,0,.729V2.288a.729.729,0,0,0,1.459,0V.729A.729.729,0,0,0,.729,0Z" transform="translate(0 0)" fill="#0f0c75"/>
          </g>
        </g>
        <g id="Group_12702" data-name="Group 12702" transform="translate(10.133 8.574)">
          <g id="Group_12701" data-name="Group 12701" transform="translate(0 0)">
            <path id="Path_12272" data-name="Path 12272" d="M.729,0A.729.729,0,0,0,0,.729V2.288a.729.729,0,1,0,1.459,0V.729A.729.729,0,0,0,.729,0Z" fill="#0f0c75"/>
          </g>
        </g>
        <g id="Group_12704" data-name="Group 12704" transform="translate(10.133 17.927)">
          <g id="Group_12703" data-name="Group 12703" transform="translate(0)">
            <path id="Path_12273" data-name="Path 12273" d="M.729,0A.729.729,0,0,0,0,.729V2.288a.729.729,0,1,0,1.459,0V.729A.729.729,0,0,0,.729,0Z" transform="translate(0)" fill="#0f0c75"/>
          </g>
        </g>
        <g id="Group_12706" data-name="Group 12706" transform="translate(10.133 22.604)">
          <g id="Group_12705" data-name="Group 12705" transform="translate(0 0)">
            <path id="Path_12274" data-name="Path 12274" d="M.729,0A.729.729,0,0,0,0,.729V2.288a.729.729,0,0,0,1.459,0V.729A.729.729,0,0,0,.729,0Z" fill="#0f0c75"/>
          </g>
        </g>
        <g id="Group_12708" data-name="Group 12708" transform="translate(20.266 5.456)">
          <g id="Group_12707" data-name="Group 12707" transform="translate(0 0)">
            <path id="Path_12275" data-name="Path 12275" d="M18.78,6.788a1.887,1.887,0,0,0-1.675-1.306l-4.3-.292-1.607-4a1.9,1.9,0,0,0-3.518,0l-1.607,4-4.3.292A1.9,1.9,0,0,0,.681,8.829l3.309,2.765L2.939,15.776a1.9,1.9,0,0,0,2.846,2.068l3.652-2.293,3.652,2.293a1.9,1.9,0,0,0,2.846-2.068l-1.052-4.182,3.309-2.765A1.887,1.887,0,0,0,18.78,6.788Zm-1.523.921L13.6,10.768a.729.729,0,0,0-.24.738l1.164,4.626a.437.437,0,0,1-.656.477l-4.04-2.536a.729.729,0,0,0-.775,0l-4.04,2.536a.437.437,0,0,1-.656-.477l1.164-4.626a.729.729,0,0,0-.24-.738L1.617,7.709a.437.437,0,0,1,.251-.771l4.759-.323a.729.729,0,0,0,.627-.456L9.032,1.733a.437.437,0,0,1,.811,0L11.62,6.159a.729.729,0,0,0,.627.456l4.759.323a.437.437,0,0,1,.251.771Z" transform="translate(0)" fill="#0f0c75"/>
          </g>
        </g>
      </g>
      <g id="XMLID_1101_" transform="translate(175.679 419.646) rotate(41)">
        <g id="XMLID_400_" transform="translate(0 0)">
          <path id="XMLID_437_" d="M15.033,4.767H11.377L10.257,1.31A1.866,1.866,0,0,0,8.454,0h0a1.866,1.866,0,0,0-1.8,1.315L5.54,4.767H1.9A1.895,1.895,0,0,0,.79,8.2l2.955,2.133L2.615,13.8a1.866,1.866,0,0,0,.688,2.12,1.866,1.866,0,0,0,2.229,0L8.48,13.768,11.413,15.9a1.895,1.895,0,0,0,2.914-2.123L13.2,10.333,16.145,8.2a1.895,1.895,0,0,0-1.112-3.428Zm.282,2.284L11.95,9.491a.707.707,0,0,0-.257.793l1.291,3.935a.481.481,0,0,1-.739.538L8.9,12.322a.707.707,0,0,0-.832,0L4.7,14.774a.481.481,0,0,1-.74-.537l1.29-3.958a.707.707,0,0,0-.258-.792L1.617,7.051a.481.481,0,0,1,.281-.87H6.056a.707.707,0,0,0,.673-.491L8,1.747a.46.46,0,0,1,.457-.333h0a.459.459,0,0,1,.457.332l1.279,3.946a.707.707,0,0,0,.673.489h4.17a.48.48,0,0,1,.282.87Z" transform="translate(10.511 71.17)" fill="#fdc403"/>
          <path id="XMLID_446_" d="M4.082,10.793A1.381,1.381,0,0,0,5.25,11.959a1.469,1.469,0,0,0,.228.018,1.378,1.378,0,0,0,1.241-.77L7.855,8.96l2.5.4a1.4,1.4,0,0,0,1.213-2.377L9.769,5.187l1.147-2.248a1.4,1.4,0,0,0-1.89-1.885L6.786,2.2,5,.415A1.382,1.382,0,0,0,3.367.158a1.381,1.381,0,0,0-.746,1.472l.4,2.5L.768,5.276a1.4,1.4,0,0,0,.418,2.636l2.5.393Zm.043-5.637A.707.707,0,0,0,4.5,4.413L4.023,1.441,6.15,3.568a.707.707,0,0,0,.823.129L9.641,2.328,8.276,5a.707.707,0,0,0,.13.821l2.132,2.133-2.97-.473a.707.707,0,0,0-.742.379L5.473,10.536,5,7.576a.707.707,0,0,0-.589-.588L1.441,6.52Z" transform="translate(73.48 0)" fill="#fdc403"/>
          <path id="XMLID_447_" d="M12.891.471A.707.707,0,0,0,11.564.96,6.75,6.75,0,0,1,10.01,8.049a5.245,5.245,0,0,1-7.41,0,4.05,4.05,0,0,1,0-5.728,3.1,3.1,0,0,1,4.382,0,2.34,2.34,0,0,1,0,3.306,1.731,1.731,0,0,1-2.445,0,.707.707,0,1,0-1,1,3.146,3.146,0,0,0,4.444,0,3.756,3.756,0,0,0,0-5.306,4.513,4.513,0,0,0-6.382,0,5.464,5.464,0,0,0,0,7.728,6.661,6.661,0,0,0,9.409,0A8.168,8.168,0,0,0,12.891.471Z" transform="translate(0 42.646)" fill="#fdc403"/>
          <path id="XMLID_451_" d="M2.687,0A2.687,2.687,0,1,0,5.373,2.687,2.69,2.69,0,0,0,2.687,0Zm0,3.959A1.273,1.273,0,1,1,3.959,2.687,1.274,1.274,0,0,1,2.687,3.959Z" transform="translate(75.229 80.243)" fill="#fdc403"/>
          <path id="XMLID_454_" d="M2.244,0A2.244,2.244,0,1,0,4.489,2.244,2.247,2.247,0,0,0,2.244,0Zm0,3.075a.83.83,0,1,1,.83-.83A.831.831,0,0,1,2.244,3.075Z" transform="translate(80.969 45.506)" fill="#fdc403"/>
          <path id="XMLID_1123_" d="M2.687,5.373A2.687,2.687,0,1,0,0,2.687,2.69,2.69,0,0,0,2.687,5.373Zm0-3.959A1.273,1.273,0,1,1,1.414,2.687,1.274,1.274,0,0,1,2.687,1.414Z" transform="translate(10.513 0.002)" fill="#fdc403"/>
          <path id="XMLID_1125_" d="M.707,0A.707.707,0,0,0,0,.707V1.65a.707.707,0,0,0,1.414,0V.707A.707.707,0,0,0,.707,0Z" transform="translate(100.541 23.631)" fill="#fdc403"/>
          <path id="XMLID_1126_" d="M.707,0A.707.707,0,0,0,0,.707V1.65a.707.707,0,1,0,1.414,0V.707A.707.707,0,0,0,.707,0Z" transform="translate(100.541 35.483)" fill="#fdc403"/>
          <path id="XMLID_1128_" d="M1.65,1.414A.707.707,0,1,0,1.65,0H.707a.707.707,0,1,0,0,1.414Z" transform="translate(105.317 30.028)" fill="#fdc403"/>
          <path id="XMLID_1129_" d="M0,.707a.707.707,0,0,0,.707.707H1.65A.707.707,0,0,0,1.65,0H.707A.707.707,0,0,0,0,.707Z" transform="translate(95.208 30.028)" fill="#fdc403"/>
          <path id="XMLID_1130_" d="M2.457,1.966A2.472,2.472,0,0,0,1.729.207a.707.707,0,1,0-1,1,1.075,1.075,0,0,1,0,1.519,2.488,2.488,0,0,0,0,3.518.707.707,0,0,0,1-1,1.075,1.075,0,0,1,0-1.519,2.471,2.471,0,0,0,.729-1.759Z" transform="translate(25.217 16.347)" fill="#fdc403"/>
          <path id="XMLID_1132_" d="M4.432,0A2.572,2.572,0,0,0,1.862,2.569,1.157,1.157,0,0,1,.707,3.725a.707.707,0,0,0,0,1.414A2.572,2.572,0,0,0,3.277,2.569,1.157,1.157,0,0,1,4.432,1.414.707.707,0,1,0,4.432,0Z" transform="translate(51.499 79.057)" fill="#fdc403"/>
          <path id="XMLID_1133_" d="M.707,1.414A.707.707,0,0,0,1.414.707.707.707,0,0,0,.707,0,.707.707,0,0,0,0,.707a.707.707,0,0,0,.707.707Z" transform="translate(47.63 3.82)" fill="#fdc403"/>
        </g>
      </g>
    </g>
  </g>
</svg>
