<svg xmlns="http://www.w3.org/2000/svg" width="43.639" height="43.595" viewBox="0 0 43.639 43.595"><defs><style>.a{fill:#0f0c75;}.b{fill:#fdc403;}</style></defs><g transform="translate(0 -0.243)"><g transform="translate(0 0.243)"><path class="a" d="M43.334,15.9,38.459,3.221A4.65,4.65,0,0,0,32.447.555l-.1.042L7.979,10.7a4.628,4.628,0,0,0-2.571,5.922l.67,1.788H4.541A4.546,4.546,0,0,0,0,22.948V39.3a4.546,4.546,0,0,0,4.541,4.541h30.88A4.546,4.546,0,0,0,39.962,39.3V22.948a4.464,4.464,0,0,0-.065-.735l.844-.341A4.667,4.667,0,0,0,43.334,15.9ZM4.541,19.86h30.88a3.084,3.084,0,0,1,3.07,2.906H1.471A3.084,3.084,0,0,1,4.541,19.86Zm7.3-4.377L16.7,13.054l1,2.5L12.842,17.98ZM38.509,39.3a3.092,3.092,0,0,1-3.088,3.088H4.541A3.092,3.092,0,0,1,1.453,39.3V30.032H38.509Zm0-10.717H1.453V24.22H38.509ZM40.2,20.529l-.759.307a4.543,4.543,0,0,0-4.015-2.429H15.238l3.709-1.855a.727.727,0,0,0,.35-.92l-1.541-3.851a.727.727,0,0,0-.944-.4l-.055.025L10.6,14.483a.727.727,0,0,0-.349.92l1.2,3H7.629l-.86-2.295a3.181,3.181,0,0,1,1.767-4.069L32.9,1.944A3.193,3.193,0,0,1,37.071,3.67q.016.038.031.076l4.875,12.676A3.208,3.208,0,0,1,40.2,20.529Z" transform="translate(0 -0.243)"/><path class="b" d="M266.05,360.359a4.36,4.36,0,0,0,4.38,0,4.36,4.36,0,1,0,0-7.539,4.36,4.36,0,1,0-4.38,7.539Zm5.595-6.5a2.876,2.876,0,0,1,.965-.177,2.907,2.907,0,1,1-.965,5.635A4.342,4.342,0,0,0,271.644,353.86Zm-1.215.827a2.853,2.853,0,0,1,0,3.8A2.853,2.853,0,0,1,270.43,354.687Zm-2.18-1a2.874,2.874,0,0,1,.965.177,4.342,4.342,0,0,0,0,5.458,2.9,2.9,0,1,1-.965-5.635Z" transform="translate(-239.913 -320.26)"/><rect class="a" width="1.453" height="7.586" transform="translate(31.239 16.323) rotate(-113.966)"/><rect class="a" width="11.027" height="1.452" transform="matrix(0.908, -0.419, 0.419, 0.908, 26.022, 13.459)"/></g></g></svg>