<svg xmlns="http://www.w3.org/2000/svg" width="46" height="29.098" viewBox="0 0 46 29.098"><defs><style>.a{fill:#0f0c75;}.b{fill:#fdc403;}</style></defs><g transform="translate(0 -94.062)"><g transform="translate(0 94.062)"><g transform="translate(0 0)"><path class="a" d="M42.78,106.4l-1.191-4.765a.72.72,0,0,0,.57-.7v-.768a3.028,3.028,0,0,0-3.025-3.025H33.708V95.551a1.49,1.49,0,0,0-1.489-1.489H4.562a1.49,1.49,0,0,0-1.489,1.489v13.061a.72.72,0,0,0,1.441,0V95.551a.048.048,0,0,1,.048-.048H32.219a.048.048,0,0,1,.048.048v13.061a.72.72,0,1,0,1.441,0v-.816h8.5a2.357,2.357,0,0,1,2.238,1.633h-2.24a.72.72,0,0,0-.72.72v1.537a2.259,2.259,0,0,0,2.257,2.257h.816v3.169H42.676a4.56,4.56,0,0,0-8.622,0h-.347v-5.426a.72.72,0,1,0-1.441,0v5.426H17.323a4.56,4.56,0,0,0-8.622,0H4.562a.048.048,0,0,1-.048-.048v-1.585H7.635a.72.72,0,1,0,0-1.441H.72a.72.72,0,1,0,0,1.441H3.073v1.585a1.49,1.49,0,0,0,1.489,1.489H8.452c0,.016,0,.032,0,.048a4.562,4.562,0,0,0,9.123,0c0-.016,0-.032,0-.048H33.8c0,.016,0,.032,0,.048a4.562,4.562,0,0,0,9.123,0c0-.016,0-.032,0-.048H45.28a.72.72,0,0,0,.72-.72v-7.683A3.8,3.8,0,0,0,42.78,106.4Zm-9.072-7.822h5.426a1.586,1.586,0,0,1,1.585,1.585v.048h-7.01Zm0,7.779v-4.706h6.4l1.176,4.706Zm-20.7,15.365a3.121,3.121,0,1,1,3.121-3.121A3.125,3.125,0,0,1,13.013,121.72Zm25.353,0a3.121,3.121,0,1,1,3.121-3.121A3.125,3.125,0,0,1,38.365,121.72ZM44.56,112.5h-.816a.817.817,0,0,1-.816-.816v-.816H44.56V112.5Z" transform="translate(0 -94.062)"/></g></g><g transform="translate(11.524 117.11)"><g transform="translate(0 0)"><path class="a" d="M129.756,350.6a1.489,1.489,0,1,0,1.489,1.489A1.49,1.49,0,0,0,129.756,350.6Z" transform="translate(-128.267 -350.597)"/></g></g><g transform="translate(36.877 117.11)"><g transform="translate(0 0)"><path class="a" d="M411.944,350.6a1.489,1.489,0,1,0,1.489,1.489A1.49,1.49,0,0,0,411.944,350.6Z" transform="translate(-410.455 -350.597)"/></g></g><g transform="translate(18.438 114.037)"><g transform="translate(0 0)"><path class="a" d="M216.7,316.393H205.947a.72.72,0,0,0,0,1.441H216.7a.72.72,0,1,0,0-1.441Z" transform="translate(-205.227 -316.393)"/></g></g><g transform="translate(1.537 110.964)"><path class="a" d="M27.042,282.188H17.822a.72.72,0,1,0,0,1.441h9.219a.72.72,0,1,0,0-1.441Z" transform="translate(-17.102 -282.188)"/></g><g transform="translate(13.061 100.976)"><g transform="translate(0 0)"><path class="b" d="M157.355,171.234a.72.72,0,0,0-1.019,0l-6.405,6.405-3.332-3.332a.72.72,0,0,0-1.019,1.019l3.841,3.841a.72.72,0,0,0,1.018,0l6.914-6.914A.72.72,0,0,0,157.355,171.234Z" transform="translate(-145.37 -171.023)"/></g></g></g></svg>