<svg xmlns="http://www.w3.org/2000/svg" xmlns:xlink="http://www.w3.org/1999/xlink" width="72.667" height="69.99" viewBox="0 0 72.667 69.99">
  <defs>
    <linearGradient id="linear-gradient" x1="1.072" y1="0.128" x2="0" y2="0.937" gradientUnits="objectBoundingBox">
      <stop offset="0" stop-color="#0f0c75"/>
      <stop offset="1" stop-color="#49039b"/>
    </linearGradient>
  </defs>
  <g id="Group_14076" data-name="Group 14076" transform="translate(-27.814 -295.104)">
    <rect id="Rectangle_5128" data-name="Rectangle 5128" width="72.667" height="69.99" rx="10" transform="translate(27.814 295.104)" fill="url(#linear-gradient)"/>
    <path id="Exclusion_1" data-name="Exclusion 1" d="M3486,148a17.945,17.945,0,1,1,7.007-1.414A17.885,17.885,0,0,1,3486,148Zm-5.625-18a1.126,1.126,0,0,0-.8,1.921l9,9a1.125,1.125,0,0,0,1.593-1.591l-7.08-7.081h1.785a5.639,5.639,0,0,0,5.509-4.5h1.24a1.125,1.125,0,1,0,0-2.25h-1.24a5.522,5.522,0,0,0-1.039-2.25h2.279a1.125,1.125,0,1,0,0-2.249h-11.25a1.125,1.125,0,1,0,0,2.249h4.5a3.378,3.378,0,0,1,3.168,2.25h-7.668a1.125,1.125,0,0,0,0,2.25h7.668a3.378,3.378,0,0,1-3.168,2.25Z" transform="translate(-3422 201)" fill="#fdc403"/>
  </g>
</svg>
