<svg xmlns="http://www.w3.org/2000/svg" xmlns:xlink="http://www.w3.org/1999/xlink" width="44" height="44" viewBox="0 0 44 44">
    <defs>
        <linearGradient id="linear-gradient" x1="0.79" x2="0.5" y2="1" gradientUnits="objectBoundingBox">
            <stop offset="0" stop-color="#0f0c75"/>
            <stop offset="1" stop-color="#49039b"/>
        </linearGradient>
    </defs>
    <g id="Group_14599" data-name="Group 14599" transform="translate(-299 -404)">
        <circle id="Ellipse_393" data-name="Ellipse 393" cx="22" cy="22" r="22" transform="translate(299 404)" fill="url(#linear-gradient)"/>
        <g id="Icon_ionic-ios-mail" data-name="Icon ionic-ios-mail" transform="translate(308.86 411.984)">
            <path id="Path_13354" data-name="Path 13354" d="M20.971,10.34l-4.589,4.674a.082.082,0,0,0,0,.119l3.211,3.42a.553.553,0,0,1,0,.785.556.556,0,0,1-.785,0l-3.2-3.407a.088.088,0,0,0-.124,0l-.78.793a3.434,3.434,0,0,1-2.448,1.032,3.5,3.5,0,0,1-2.5-1.062l-.751-.763a.088.088,0,0,0-.124,0l-3.2,3.407a.556.556,0,0,1-.785,0,.553.553,0,0,1,0-.785l3.211-3.42a.091.091,0,0,0,0-.119L3.52,10.34a.084.084,0,0,0-.145.06v9.352A1.369,1.369,0,0,0,4.74,21.117H19.751a1.369,1.369,0,0,0,1.365-1.365V10.4A.085.085,0,0,0,20.971,10.34Z" transform="translate(0 -0.96)" fill="#fdc403"/>
            <path id="Path_13355" data-name="Path 13355" d="M12.58,15.684a2.319,2.319,0,0,0,1.667-.7l6.691-6.811a1.34,1.34,0,0,0-.844-.3H5.07a1.332,1.332,0,0,0-.844.3l6.691,6.811A2.319,2.319,0,0,0,12.58,15.684Z" transform="translate(-0.335 0)" fill="#fdc403"/>
        </g>
    </g>
</svg>
