<svg xmlns="http://www.w3.org/2000/svg" xmlns:xlink="http://www.w3.org/1999/xlink" width="64" height="59" viewBox="0 0 64 59">
  <defs>
    <clipPath id="clip-inactive">
      <rect width="64" height="59"/>
    </clipPath>
  </defs>
  <g id="inactive" clip-path="url(#clip-inactive)">
    <g id="group" transform="translate(22.529 20.771)" opacity="0.4">
      <path id="Path_12710" data-name="Path 12710" d="M18.163,11.866l-.019-.008-.006,0-2.65-1.026h0l-.427-.165a.008.008,0,0,1-.005-.007v-.69a2.455,2.455,0,0,0,.916-1.585,1.13,1.13,0,0,0,.777-1.857v-.95a3.239,3.239,0,0,0-6.211-1.288V3.7a3.7,3.7,0,1,0-7.393,0V4.839a1.19,1.19,0,0,0-.309.8A1.265,1.265,0,0,0,4.037,6.9a2.757,2.757,0,0,0,1.124,1.9v.762a.072.072,0,0,1-.046.067c-3.832,1.486-3.545,1.372-3.629,1.413A2.645,2.645,0,0,0,0,13.421V17.94a.923.923,0,0,0,.922.922H6.206a.286.286,0,1,0,0-.572H2.945V13.968a.286.286,0,0,0-.572,0V18.29H.922a.35.35,0,0,1-.35-.35V13.421a2.07,2.07,0,0,1,1.215-1.9l2.829-1.1a2.883,2.883,0,0,0,2.225,1.127,2.7,2.7,0,0,0,1.979-.866l.262-.279,2.481.961h0a2.237,2.237,0,0,1,1.516,1.412,2.151,2.151,0,0,1,.095.639V17.94a.35.35,0,0,1-.349.35H11.374V13.968a.286.286,0,1,0-.572,0V18.29H7.541a.286.286,0,1,0,0,.572h11.15a.837.837,0,0,0,.836-.836V16.44a.286.286,0,1,0-.572,0v1.586a.265.265,0,0,1-.264.264H17.473V14.468a.286.286,0,0,0-.572,0V18.29H13.678a.93.93,0,0,0,.069-.35V13.421a2.68,2.68,0,0,0-.187-1,2.379,2.379,0,0,0,1.691-.762l.209-.223,2.466.955a1.5,1.5,0,0,1,.176.1l.01.005A1.751,1.751,0,0,1,18.956,14V15.1a.286.286,0,1,0,.572,0V14A2.336,2.336,0,0,0,18.163,11.866ZM13.541,9.919h0a1.9,1.9,0,0,1-1.946-1.883V6.362A5.565,5.565,0,0,0,14.8,5.495c.361.387.553.587.622.67,0,2.19,0,1.83,0,1.9A1.88,1.88,0,0,1,13.541,9.919Zm-1.525.726a.023.023,0,0,1-.015.022l-.333.129L8.617,9.616a.053.053,0,0,1-.034-.05V8.748A2.791,2.791,0,0,0,9.646,6.9a1.3,1.3,0,0,0,.47-.118A1.053,1.053,0,0,0,10,7.253a1.134,1.134,0,0,0,1.045,1.128,2.484,2.484,0,0,0,.968,1.625ZM9.669,6.319V4.952A.689.689,0,0,1,9.669,6.319Zm1.353.4V7.8a.558.558,0,0,1-.447-.546A.581.581,0,0,1,11.023,6.723ZM16,7.8V6.708A.556.556,0,0,1,16,7.8ZM13.51,2.907a2.67,2.67,0,0,1,2.667,2.667v.588A1.19,1.19,0,0,0,16,6.128a.411.411,0,0,0-.127-.321c-.094-.115-.228-.251-.7-.754a.49.49,0,0,0-.257-.145h0c-.232-.047-.356.07-.535.176a4.972,4.972,0,0,1-2.81.7.49.49,0,0,0-.528.348,1.445,1.445,0,0,0-.2.043c0-.648.008-.526,0-.633A2.67,2.67,0,0,1,13.51,2.907ZM3.717,3.7a3.124,3.124,0,1,1,6.249,0v.738a1.321,1.321,0,0,0-.3-.058V4.335c0-.25-.034-.238-.939-1.211a.517.517,0,0,0-.663-.081,5.784,5.784,0,0,1-3.5.941.523.523,0,0,0-.391.137.53.53,0,0,0-.153.263,1.486,1.486,0,0,0-.31.071ZM3.408,5.636a.727.727,0,0,1,.605-.67V6.319A.69.69,0,0,1,3.408,5.636Zm1.177.9V4.56A6.378,6.378,0,0,0,8.342,3.547c.441.474.682.724.755.815,0,2.311,0,2.233,0,2.233a2.256,2.256,0,0,1-4.51-.055ZM8.4,10.3a2.131,2.131,0,0,1-1.562.686A2.16,2.16,0,0,1,5.192,10.2l.129-.05a.648.648,0,0,0,.411-.6V9.11a3.01,3.01,0,0,0,1.145.221,2.815,2.815,0,0,0,1.133-.24v.475a.629.629,0,0,0,.4.583l.1.037Zm4.813,1.523a2.85,2.85,0,0,0-.836-.723.6.6,0,0,0,.207-.451v-.325a2.673,2.673,0,0,0,.953.171h0a2.459,2.459,0,0,0,.942-.188v.353a.586.586,0,0,0,.4.553A1.807,1.807,0,0,1,13.217,11.82Zm0,0" fill="#0f0c75"/>
    </g>
  </g>
</svg>
