<svg xmlns="http://www.w3.org/2000/svg" width="17" height="17.207" viewBox="0 0 17 17.207"><defs><style>.a,.b{fill:none;}.b{stroke:#0f0c75;fill-rule:evenodd;}.c{fill:#fff;stroke:#fdc403;}.d{stroke:none;}</style></defs><g transform="translate(0 0.5)"><rect class="a" width="16" height="16" transform="translate(0 0)"/><g transform="translate(1)"><rect class="a" width="16" height="16" transform="translate(0 0)"/><path class="b" d="M6.58,9.47A2.786,2.786,0,0,0,9.371,6.679,2.872,2.872,0,0,0,6.58,3.788,2.786,2.786,0,0,0,3.788,6.579,2.942,2.942,0,0,0,6.58,9.47ZM1.894,1.894a6.626,6.626,0,0,1,9.371,9.371L6.58,15.95,1.894,11.265A6.807,6.807,0,0,1,1.894,1.894Z" transform="translate(0.975 0.05)"/><g class="c" transform="translate(4 3)"><circle class="d" cx="3.5" cy="3.5" r="3.5"/><circle class="a" cx="3.5" cy="3.5" r="3"/></g></g></g></svg>