<svg xmlns="http://www.w3.org/2000/svg" width="17.012" height="11.675" viewBox="0 0 17.012 11.675"><defs><style>.a,.b{fill:none;stroke-linejoin:round;}.a{stroke:#0f0c75;stroke-linecap:round;}.b{stroke:#fdc403;stroke-width:1.1px;}</style></defs><g transform="translate(-231.638 -197.823)"><path class="a" d="M8.866,13.692c1.209,0,1.185.045,1.185-1.135s.024-1.135-1.185-1.135-1.185-.045-1.185,1.135S7.661,13.692,8.866,13.692Zm8.736-3.27H11.776V15.4H5.955V9H4.5V19.675H5.955V17.54h13.1v2.135h1.455v-6.4A2.879,2.879,0,0,0,17.6,10.422Z" transform="translate(227.638 189.323)"/><path class="b" d="M-3232.552,88.794a6.632,6.632,0,0,1,1.075-.1,5.753,5.753,0,0,1,1.029.1,2.862,2.862,0,0,1,.209,1.044,5.037,5.037,0,0,1-.209,1.249h-2.1a5.875,5.875,0,0,1-.177-1.249A3.31,3.31,0,0,1-3232.552,88.794Z" transform="translate(3468 112)"/></g></svg>