<svg xmlns="http://www.w3.org/2000/svg" xmlns:xlink="http://www.w3.org/1999/xlink" width="44" height="44" viewBox="0 0 44 44"><defs><style>.a{fill:url(#a);}.b{fill:#fdc403;}</style><linearGradient id="a" x1="0.79" x2="0.5" y2="1" gradientUnits="objectBoundingBox"><stop offset="0" stop-color="#0f0c75"/><stop offset="1" stop-color="#49039b"/></linearGradient></defs><g transform="translate(-288 -395)"><circle class="a" cx="22" cy="22" r="22" transform="translate(288 395)"/><path class="b" d="M20.038,17.038a13.447,13.447,0,0,0-2.809-1.88c-.842-.4-1.15-.4-1.746.033-.5.358-.817.692-1.388.567A8.279,8.279,0,0,1,11.306,13.7a8.22,8.22,0,0,1-2.063-2.788c-.121-.575.213-.892.567-1.388.429-.6.442-.9.033-1.746a13.181,13.181,0,0,0-1.88-2.809c-.613-.613-.75-.479-1.088-.358a6.19,6.19,0,0,0-1,.529A3,3,0,0,0,4.683,6.4c-.238.513-.513,1.467.888,3.959a22.093,22.093,0,0,0,3.884,5.181h0l0,0,0,0h0a22.179,22.179,0,0,0,5.181,3.884c2.492,1.4,3.447,1.125,3.959.888a2.954,2.954,0,0,0,1.263-1.2,6.19,6.19,0,0,0,.529-1C20.517,17.788,20.654,17.65,20.038,17.038Z" transform="translate(297.611 403.994)"/></g></svg>