<svg xmlns="http://www.w3.org/2000/svg" width="30.07" height="23.93" viewBox="0 0 30.07 23.93"><defs><style>.a{fill:#fdc403;}</style></defs><g transform="translate(0.001 -50.994)"><g transform="translate(-0.001 50.994)"><path class="a" d="M76.441,120.939,65.717,129.78a.253.253,0,0,1-.009.056.255.255,0,0,0-.009.056v8.952a1.211,1.211,0,0,0,1.194,1.194h7.162v-7.162h4.775v7.162H85.99a1.212,1.212,0,0,0,1.194-1.194v-8.952a.262.262,0,0,0-.019-.112Z" transform="translate(-61.406 -116.108)"/><path class="a" d="M29.862,58.651l-4.084-3.395v-7.61a.575.575,0,0,0-.6-.6H21.6a.574.574,0,0,0-.6.6v3.637l-4.551-3.8a2.314,2.314,0,0,0-2.835,0L.207,58.651a.542.542,0,0,0-.205.4.6.6,0,0,0,.13.439l1.156,1.38a.636.636,0,0,0,.392.205.693.693,0,0,0,.448-.131L15.034,50.183,27.941,60.946a.575.575,0,0,0,.392.13h.056a.637.637,0,0,0,.392-.2l1.156-1.38a.6.6,0,0,0,.13-.439A.543.543,0,0,0,29.862,58.651Z" transform="translate(0.001 -46.994)"/></g></g></svg>