<svg xmlns="http://www.w3.org/2000/svg" width="12.06" height="16.072" viewBox="0 0 12.06 16.072"><defs><style>.a{opacity:0.481;}.b{fill:#0f0c75;}.c{fill:#91814a;stroke:#d0be82;stroke-linecap:round;}</style></defs><g transform="translate(-337.921 -195.959)"><g class="a" transform="translate(426.254 597.031)"><path class="b" d="M66.662,4.182H64.3A4.652,4.652,0,0,0,62.438.929h4.224a.465.465,0,0,0,0-.929H56.83a.465.465,0,0,0,0,.929h2.816a3.755,3.755,0,0,1,3.722,3.253H56.83a.465.465,0,0,0,0,.929h6.538a3.761,3.761,0,0,1-3.722,3.3H56.834a.472.472,0,0,0-.465.479.48.48,0,0,0,.144.335l7.031,6.649a.463.463,0,0,0,.655-.019.474.474,0,0,0-.019-.664L58,9.34h1.645A4.694,4.694,0,0,0,64.3,5.111h2.361a.465.465,0,0,0,0-.929Z" transform="translate(-144 -401)"/></g><path class="c" d="M-.02.207h11" transform="translate(338.5 200.5)"/><path class="c" d="M-.079-.041h11" transform="translate(338.5 196.5)"/></g></svg>