<svg xmlns="http://www.w3.org/2000/svg" width="20.837" height="16.496" viewBox="0 0 20.837 16.496"><defs><style>.a{opacity:0.4;}.b{fill:#fdc403;}.c{fill:#0f0c75;}</style></defs><g class="a" transform="translate(-4.5 -7.313)"><path class="b" d="M7.539,17.551a1.519,1.519,0,1,1-1.519-1.519A1.519,1.519,0,0,1,7.539,17.551Z" transform="translate(0 -1.99)"/><path class="b" d="M7.539,8.832A1.519,1.519,0,1,1,6.019,7.312,1.519,1.519,0,0,1,7.539,8.832Z" transform="translate(0 0)"/><path class="b" d="M7.539,26.269A1.519,1.519,0,1,1,6.019,24.75a1.519,1.519,0,0,1,1.519,1.519Z" transform="translate(0 -3.98)"/><path class="c" d="M26.259,16.875H13.208a.868.868,0,1,0,0,1.736H26.259a.868.868,0,0,0,0-1.736Z" transform="translate(-1.789 -2.183)"/><path class="c" d="M26.259,25.594H13.208a.868.868,0,0,0,0,1.736H26.259a.868.868,0,0,0,0-1.736Z" transform="translate(-1.789 -4.173)"/><path class="c" d="M13.208,9.893H26.259a.868.868,0,0,0,0-1.736H13.208a.868.868,0,0,0,0,1.736Z" transform="translate(-1.789 -0.193)"/></g></svg>