<svg xmlns="http://www.w3.org/2000/svg" width="3409.55" height="1236.454" viewBox="0 0 3409.55 1236.454">
    <g id="Group_13891" data-name="Group 13891" transform="translate(-957.517 -4899.034)">
        <g id="Group_12526" data-name="Group 12526">
            <g id="Group_12525" data-name="Group 12525">
                <g id="Group_12524" data-name="Group 12524" transform="translate(-3940.467 -1789.966)">
                    <g id="Group_12523" data-name="Group 12523" transform="translate(3550 3313.744)">
                        <g id="Group_12522" data-name="Group 12522" transform="translate(-257.601 2805)">
                            <g id="Group_12492" data-name="Group 12492" transform="translate(899.545 -53.315)">
                                <path id="Path_13349" data-name="Path 13349" d="M44-579a51.783,51.783,0,0,0,4.5,21.5,58.384,58.384,0,0,0,12,17.5A54.8,54.8,0,0,0,78-528.25,54.391,54.391,0,0,0,99.5-524a54.391,54.391,0,0,0,21.5-4.25A54.8,54.8,0,0,0,138.5-540a58.383,58.383,0,0,0,12-17.5A51.782,51.782,0,0,0,155-579a53.511,53.511,0,0,0-4.5-21.75,57.513,57.513,0,0,0-12-17.75A54.8,54.8,0,0,0,121-630.25a54.391,54.391,0,0,0-21.5-4.25A54.391,54.391,0,0,0,78-630.25,54.8,54.8,0,0,0,60.5-618.5a57.512,57.512,0,0,0-12,17.75A53.511,53.511,0,0,0,44-579ZM149.5-421.5a50.192,50.192,0,0,0-3.75-19.5,50.424,50.424,0,0,0-10.25-15.75A48.739,48.739,0,0,0,120-467.5a47.466,47.466,0,0,0-19.5-4,47.467,47.467,0,0,0-19.5,4,55.1,55.1,0,0,0-16,10.75A49.7,49.7,0,0,0,54-441a47.466,47.466,0,0,0-4,19.5v372A47.466,47.466,0,0,0,54-30,51.8,51.8,0,0,0,64.75-14.25a47.679,47.679,0,0,0,16,10.5A50.766,50.766,0,0,0,100,0q21,0,35.25-14.25T149.5-49.5ZM664-49q0,21-14.5,35T614,0q-18.5,0-32-11.25A48.787,48.787,0,0,1,565-40,241.221,241.221,0,0,1,500.25-6.5,228.814,228.814,0,0,1,426,5.5a231.186,231.186,0,0,1-92.5-18.75,243.709,243.709,0,0,1-76-51A238.583,238.583,0,0,1,206.25-140a231.186,231.186,0,0,1-18.75-92.5q0-49.5,18.75-93a238.583,238.583,0,0,1,51.25-75.75,243.71,243.71,0,0,1,76-51A231.187,231.187,0,0,1,426-471a230.971,230.971,0,0,1,74,11.75,245,245,0,0,1,64.5,32.75V-591q0-21,14.25-35T614-640q21,0,35.5,14T664-591ZM287.5-232.5a133.112,133.112,0,0,0,11,53.75,141.443,141.443,0,0,0,29.75,44,137.97,137.97,0,0,0,44,29.5A135.776,135.776,0,0,0,426-94.5a137.78,137.78,0,0,0,53.25-10.25A135.918,135.918,0,0,0,522.5-133a142.31,142.31,0,0,0,29.75-42,131.293,131.293,0,0,0,12.25-51.5V-238a134.239,134.239,0,0,0-12.25-52.25,138.121,138.121,0,0,0-29.75-42,138.135,138.135,0,0,0-43.25-28A137.78,137.78,0,0,0,426-370.5a135.776,135.776,0,0,0-53.75,10.75,137.97,137.97,0,0,0-44,29.5A142.274,142.274,0,0,0,298.5-286.5,132.58,132.58,0,0,0,287.5-232.5ZM1179.5-49q0,21-14.5,35T1129.5,0q-18.5,0-32-11.25a48.787,48.787,0,0,1-17-28.75,241.22,241.22,0,0,1-64.75,33.5,228.814,228.814,0,0,1-74.25,12A231.186,231.186,0,0,1,849-13.25a243.71,243.71,0,0,1-76-51A238.582,238.582,0,0,1,721.75-140,231.186,231.186,0,0,1,703-232.5q0-49.5,18.75-93A238.582,238.582,0,0,1,773-401.25a243.71,243.71,0,0,1,76-51A231.187,231.187,0,0,1,941.5-471a230.971,230.971,0,0,1,74,11.75A245,245,0,0,1,1080-426.5V-591q0-21,14.25-35t35.25-14q21,0,35.5,14t14.5,35ZM803-232.5a133.112,133.112,0,0,0,11,53.75,141.442,141.442,0,0,0,29.75,44,137.97,137.97,0,0,0,44,29.5A135.776,135.776,0,0,0,941.5-94.5a137.78,137.78,0,0,0,53.25-10.25A135.919,135.919,0,0,0,1038-133a142.309,142.309,0,0,0,29.75-42A131.292,131.292,0,0,0,1080-226.5V-238a134.238,134.238,0,0,0-12.25-52.25,138.12,138.12,0,0,0-29.75-42,138.136,138.136,0,0,0-43.25-28A137.78,137.78,0,0,0,941.5-370.5a135.776,135.776,0,0,0-53.75,10.75,137.971,137.971,0,0,0-44,29.5A142.273,142.273,0,0,0,814-286.5,132.581,132.581,0,0,0,803-232.5Z" transform="translate(1370.005 1394.215)" fill="#fff"/>
                            </g>
                            <path id="Path_13348" data-name="Path 13348" d="M472.5-240V-48q0,21-14.32,35T422.75,1q-21.109,0-35.43-13.98T373-47.937V-239.68q-.5-29.961-7.75-54.176t-21-41.441a94.981,94.981,0,0,0-33.5-26.715Q291-371.5,266-371.5a111.37,111.37,0,0,0-46.5,9.738,108.982,108.982,0,0,0-37,27.215,128.263,128.263,0,0,0-24.25,41.191,146.722,146.722,0,0,0-8.75,51.184V-49.43q0,20.969-14.25,35.2T100,0A50.766,50.766,0,0,1,80.75-3.75a47.679,47.679,0,0,1-16-10.5A51.8,51.8,0,0,1,54-30a47.466,47.466,0,0,1-4-19.5v-372A47.466,47.466,0,0,1,54-441a49.7,49.7,0,0,1,11-15.75A55.1,55.1,0,0,1,81-467.5a47.466,47.466,0,0,1,19.5-4,47.269,47.269,0,0,1,19.5,4.02,48.718,48.718,0,0,1,15.5,10.8,50.713,50.713,0,0,1,10.25,15.832,50.662,50.662,0,0,1,3.75,19.594l.117,7.039a220.694,220.694,0,0,1,59.57-41.461A157.9,157.9,0,0,1,277.266-471q43.555,0,79.6,17.5a183.024,183.024,0,0,1,61.574,48.25q25.531,30.75,39.8,73T472.5-240ZM936-187.5q21.5,0,35.25-13.25T985-235q-.5-49-19.75-92a244.156,244.156,0,0,0-51.75-75,243.135,243.135,0,0,0-75.75-50.5Q794.5-471,745.5-471q-49.5,0-93,18.75a243.71,243.71,0,0,0-76,51A242.034,242.034,0,0,0,525-325.5q-19,43.5-19,93t19,93a242.035,242.035,0,0,0,51.5,75.75A240.2,240.2,0,0,0,652.5-13Q696,5.5,745.5,5.5A284.693,284.693,0,0,0,797,1.25,220,220,0,0,0,838.75-10.5,177.673,177.673,0,0,0,872-27.75,194.5,194.5,0,0,0,898-48.5Q915.5-63,916.75-81.25A51.7,51.7,0,0,0,908.5-114a56.271,56.271,0,0,0-10-12.75,35.082,35.082,0,0,0-14-8.25,50.657,50.657,0,0,0-24-2.25Q848-135.5,835-125.5a108.073,108.073,0,0,1-36,25.75Q777.5-90,745.5-90a131.677,131.677,0,0,1-43.75-7.25A135,135,0,0,1,664-117.5a132.757,132.757,0,0,1-29.25-31,134.59,134.59,0,0,1-18.25-39Zm-322.5-83a132.763,132.763,0,0,1,17-41.75,134.975,134.975,0,0,1,29.5-33.5A134.422,134.422,0,0,1,699.75-368,138.588,138.588,0,0,1,747-376a140.725,140.725,0,0,1,47.5,8,140.388,140.388,0,0,1,40.25,22,132.887,132.887,0,0,1,30,33.25A137.754,137.754,0,0,1,882.5-270.5Zm548,77q12.5,4,26.75,8.5a138.345,138.345,0,0,1,26.25,11.25,67.861,67.861,0,0,1,20,16.75q8,10,8,24.5a38.177,38.177,0,0,1-6,21.25,50.015,50.015,0,0,1-16.25,15.5A88.669,88.669,0,0,1,1197-86a101.492,101.492,0,0,1-26.5,3.5q-31,0-51.25-10.75T1083-127.5q-10.5-13-23-18.5a52.251,52.251,0,0,0-24.5-4.75,48.076,48.076,0,0,0-21.75,6.5A43.835,43.835,0,0,0,998.25-129a43.843,43.843,0,0,0-6,22.25Q992-94,1000-79.484a128.176,128.176,0,0,0,31.25,38.723,179.123,179.123,0,0,0,42.5,26.4A220.268,220.268,0,0,0,1122.25.723,262.161,262.161,0,0,0,1171,5.5q36,0,66.75-11t53.25-30a138.561,138.561,0,0,0,35.25-44.75A123.908,123.908,0,0,0,1339-136q0-32-12.25-54.5a121.664,121.664,0,0,0-33-38.5A203.311,203.311,0,0,0,1246-256q-27-11-57-20.5-18.5-5.5-34-11.25a148.4,148.4,0,0,1-26.75-12.75,61.653,61.653,0,0,1-17.75-16,34.921,34.921,0,0,1-6.5-21q0-24,20.5-35.5t51-11.5a78.148,78.148,0,0,1,24.25,3.5,112.5,112.5,0,0,1,20.5,9,167.065,167.065,0,0,1,19.25,12.75q9.5,7.25,20,14.75a37.463,37.463,0,0,0,26.5,2.25A46.225,46.225,0,0,0,1308.5-356a39.914,39.914,0,0,0,10.5-21.766q2-12.766-5-27.352a86.527,86.527,0,0,0-24.5-29.668,152.4,152.4,0,0,0-36-20.871,217.578,217.578,0,0,0-42-12.57,225.235,225.235,0,0,0-43-4.273,197.008,197.008,0,0,0-61.75,9.75,171.155,171.155,0,0,0-52.5,27.5,136.324,136.324,0,0,0-36.5,43.25Q1004-366.5,1004-335q0,30,13.25,52a130.851,130.851,0,0,0,35.5,38.25,261.969,261.969,0,0,0,50.5,28.5Q1131.5-204,1161.5-193.5ZM1524-470h43q21.5,0,35.75,14T1617-421q0,21.5-14.25,36T1567-370.5h-43V-49q0,21-14.25,35T1474.5,0q-21,0-35.5-14t-14.5-35V-370.5h-36a47.466,47.466,0,0,1-19.5-4,49.7,49.7,0,0,1-15.75-11,55.1,55.1,0,0,1-10.75-16,47.466,47.466,0,0,1-4-19.5q0-21,14.5-35t35.5-14h36V-591q0-21,14.5-35t35.5-14q21,0,35.25,14T1524-591Z" transform="translate(3398.134 1344.722)" fill="#fdc403"/>
                            <g id="Group_12493" data-name="Group 12493" transform="translate(1556.12 637.986)">
                                <rect id="Rectangle_5092" data-name="Rectangle 5092" width="48.356" height="48.356" rx="20" transform="translate(336.808 439.769)" fill="#fff"/>
                                <rect id="Rectangle_5095" data-name="Rectangle 5095" width="48.356" height="48.356" rx="20" transform="translate(336.808 496.183)" fill="#fff"/>
                                <rect id="Rectangle_5093" data-name="Rectangle 5093" width="48.356" height="48.356" rx="20" transform="translate(393.223 439.769)" fill="#fff"/>
                                <rect id="Rectangle_5094" data-name="Rectangle 5094" width="48.356" height="48.356" rx="20" transform="translate(393.223 496.183)" fill="#fff"/>
                                <path id="Path_12740" data-name="Path 12740" d="M201.842,302.846V57.093H549.786S730.375,157.675,585.2,302.846" transform="translate(-18.305 -74.822)" fill="none" stroke="#fff" stroke-linecap="round" stroke-linejoin="round" stroke-width="100"/>
                                <path id="Path_12741" data-name="Path 12741" d="M114.947,493.129,386.262,378.907l233.1,114.221s29.9,60.814,10.6,131.769c-16.077,57.429-91.655,105.246-135.494,107.618-247.461,1.008-314.146,0-314.146,0V616.083" transform="translate(0 -83.554)" fill="none" stroke="#fff" stroke-linecap="round" stroke-linejoin="round" stroke-width="100"/>
                            </g>
                        </g>
                    </g>
                </g>
                <path id="Path_13350" data-name="Path 13350" d="M53.742-135.876,37.011-14.534a15.916,15.916,0,0,1-6.422,11.07A16.406,16.406,0,0,1,18.083-.507,16.214,16.214,0,0,1,6.929-6.929,16.773,16.773,0,0,1,3.718-19.435L28.9-200.6a15.877,15.877,0,0,1,4.732-9.464,15.857,15.857,0,0,1,6.253-4.394,16.267,16.267,0,0,1,12.59,0,16.514,16.514,0,0,1,9.21,8.957L121-60.5l58.981-145a16.572,16.572,0,0,1,9.041-8.957,16.266,16.266,0,0,1,12.591,0l1.859,1.014a16,16,0,0,1,6.253,5.07,15.711,15.711,0,0,1,3.042,7.774L236.262-18.928A15.958,15.958,0,0,1,232.8-6.507,16.493,16.493,0,0,1,221.559-.338a16.761,16.761,0,0,1-12.422-3.211A15.534,15.534,0,0,1,202.8-14.7L187.252-135.031,136.214-10.14a16.336,16.336,0,0,1-6,7.183A17.655,17.655,0,0,1,121.68,0a15.774,15.774,0,0,1-9.718-2.112,16.693,16.693,0,0,1-6.844-8.028Zm193,57.291a77.957,77.957,0,0,1,6.338-31.35,81.918,81.918,0,0,1,17.323-25.6,81.649,81.649,0,0,1,25.688-17.322,78.141,78.141,0,0,1,31.265-6.337,77.839,77.839,0,0,1,31.1,6.253,80.7,80.7,0,0,1,25.434,17.154,83.1,83.1,0,0,1,17.322,25.434,78.085,78.085,0,0,1,6.591,31.1v62.023a16.637,16.637,0,0,1-1.352,6.676,18.3,18.3,0,0,1-3.633,5.492,16.331,16.331,0,0,1-5.492,3.718A17.244,17.244,0,0,1,390.559,0,15.288,15.288,0,0,1,379.32-4.453a17.425,17.425,0,0,1-5.154-10.838,81.762,81.762,0,0,1-21.8,12.7,68.092,68.092,0,0,1-25.012,4.624A78.141,78.141,0,0,1,296.088-4.31,81.649,81.649,0,0,1,270.4-21.632a81.918,81.918,0,0,1-17.323-25.6A77.957,77.957,0,0,1,246.74-78.585Zm33.631.085A45.071,45.071,0,0,0,284.1-60.3,47.9,47.9,0,0,0,294.17-45.4a47.9,47.9,0,0,0,14.9,10.074,45.071,45.071,0,0,0,18.2,3.725,45.486,45.486,0,0,0,18.37-3.725,47.9,47.9,0,0,0,14.9-10.074,46.723,46.723,0,0,0,9.989-14.9,45.971,45.971,0,0,0,3.64-18.2,45.788,45.788,0,0,0-3.64-18.285,46.979,46.979,0,0,0-9.989-14.814,46.723,46.723,0,0,0-14.9-9.989,46.4,46.4,0,0,0-18.37-3.64,45.971,45.971,0,0,0-18.2,3.64,46.723,46.723,0,0,0-14.9,9.989A48.178,48.178,0,0,0,284.1-96.786,44.891,44.891,0,0,0,280.371-78.5ZM520.858-92.274l43.095,66.079a15.644,15.644,0,0,1,2.535,6.337,18.028,18.028,0,0,1-.169,6.507,16.25,16.25,0,0,1-2.535,5.915,16.629,16.629,0,0,1-4.732,4.563,15.274,15.274,0,0,1-6.084,2.62,16.432,16.432,0,0,1-6.422-.085,16.249,16.249,0,0,1-5.915-2.535,16.629,16.629,0,0,1-4.563-4.732L495.846-68.783,474.89-48.841v32.279a16.347,16.347,0,0,1-1.267,6.507,16.582,16.582,0,0,1-3.549,5.239,16.582,16.582,0,0,1-5.239,3.549A15.917,15.917,0,0,1,458.5,0a16.912,16.912,0,0,1-12.083-4.732,15.635,15.635,0,0,1-4.986-11.83v-183.2a15.464,15.464,0,0,1,1.352-6.507A17.092,17.092,0,0,1,446.5-211.5a17.067,17.067,0,0,1,5.492-3.549,17.159,17.159,0,0,1,6.507-1.268,16.051,16.051,0,0,1,11.83,4.732,16.051,16.051,0,0,1,4.732,11.83V-92.95l61.347-60a17.629,17.629,0,0,1,5.492-3.549,14.143,14.143,0,0,1,6.084-1.014,17.774,17.774,0,0,1,6.084,1.437,15.727,15.727,0,0,1,5.323,3.8v.338a17.355,17.355,0,0,1,3.549,5.577,16.894,16.894,0,0,1,1.183,6.169,15.3,15.3,0,0,1-1.268,6.084,16.893,16.893,0,0,1-3.633,5.324Zm205.335,28.9a16.463,16.463,0,0,0,11.915-4.478,15.362,15.362,0,0,0,4.647-11.577,77.2,77.2,0,0,0-6.675-31.1,82.526,82.526,0,0,0-17.492-25.35,82.18,82.18,0,0,0-25.6-17.069A78.444,78.444,0,0,0,661.8-159.2a78.559,78.559,0,0,0-31.434,6.337,82.374,82.374,0,0,0-25.688,17.238,81.808,81.808,0,0,0-17.407,25.6,77.668,77.668,0,0,0-6.422,31.434,77.668,77.668,0,0,0,6.422,31.434,81.808,81.808,0,0,0,17.407,25.6A81.187,81.187,0,0,0,630.37-4.394,79.475,79.475,0,0,0,661.8,1.859,96.226,96.226,0,0,0,679.211.423a74.361,74.361,0,0,0,14.112-3.972A60.056,60.056,0,0,0,704.561-9.38a65.738,65.738,0,0,0,8.788-7.013q5.915-4.9,6.338-11.07A17.474,17.474,0,0,0,716.9-38.532a19.019,19.019,0,0,0-3.38-4.31,11.858,11.858,0,0,0-4.732-2.788,17.122,17.122,0,0,0-8.112-.761,18.513,18.513,0,0,0-8.619,3.972,36.528,36.528,0,0,1-12.168,8.7q-7.267,3.3-18.083,3.3a44.507,44.507,0,0,1-14.788-2.451,45.63,45.63,0,0,1-12.759-6.845,44.871,44.871,0,0,1-9.887-10.478A45.492,45.492,0,0,1,618.2-63.375ZM617.188-91.429a44.873,44.873,0,0,1,5.746-14.112,45.621,45.621,0,0,1,9.971-11.323,45.434,45.434,0,0,1,13.435-7.521,46.843,46.843,0,0,1,15.971-2.7,47.565,47.565,0,0,1,16.055,2.7,47.452,47.452,0,0,1,13.6,7.436,44.915,44.915,0,0,1,10.14,11.239,46.561,46.561,0,0,1,6,14.281ZM903.136-55.6l41.912-93.457a17.856,17.856,0,0,1,3.971-5.493,17.357,17.357,0,0,1,5.408-3.465,16.68,16.68,0,0,1,6.253-1.183,15.062,15.062,0,0,1,6.506,1.521,18.944,18.944,0,0,1,5.577,3.971,16.427,16.427,0,0,1,3.549,5.492,16.41,16.41,0,0,1,1.1,6.422,16.2,16.2,0,0,1-1.606,6.591L891.644,49.348a17.856,17.856,0,0,1-3.971,5.493,17.1,17.1,0,0,1-5.493,3.465,17.561,17.561,0,0,1-6.422,1.183,15.238,15.238,0,0,1-6.591-1.521,13.607,13.607,0,0,1-8.112-9.126,18.945,18.945,0,0,1,1.352-13.013l22.984-51.714-54.08-119.483a16.2,16.2,0,0,1-1.606-6.591,16.41,16.41,0,0,1,1.1-6.422,17.1,17.1,0,0,1,3.464-5.493,17.857,17.857,0,0,1,5.493-3.971,15.062,15.062,0,0,1,6.506-1.521,16.68,16.68,0,0,1,6.253,1.183,16.663,16.663,0,0,1,5.408,3.549,18.944,18.944,0,0,1,3.971,5.577Zm118.976-22.984a44.813,44.813,0,0,1,3.718-18.252,48.088,48.088,0,0,1,10.056-14.788,46.634,46.634,0,0,1,14.872-9.971,45.893,45.893,0,0,1,18.168-3.634,46.316,46.316,0,0,1,18.336,3.634,46.634,46.634,0,0,1,14.872,9.971,46.891,46.891,0,0,1,9.971,14.788,45.709,45.709,0,0,1,3.634,18.252,45.892,45.892,0,0,1-3.634,18.168,46.635,46.635,0,0,1-9.971,14.872,47.807,47.807,0,0,1-14.872,10.056,45.406,45.406,0,0,1-18.336,3.718,44.992,44.992,0,0,1-18.168-3.718,47.808,47.808,0,0,1-14.872-10.056,47.808,47.808,0,0,1-10.056-14.872A44.992,44.992,0,0,1,1022.112-78.585Zm-33.8,0a77.958,77.958,0,0,0,6.337,31.35,81.919,81.919,0,0,0,17.323,25.6A81.649,81.649,0,0,0,1037.66-4.31a78.141,78.141,0,0,0,31.265,6.338,77.958,77.958,0,0,0,31.349-6.338,80.9,80.9,0,0,0,25.519-17.323,82.648,82.648,0,0,0,17.238-25.6,77.958,77.958,0,0,0,6.338-31.35,77.958,77.958,0,0,0-6.338-31.35,82.648,82.648,0,0,0-17.238-25.6,80.9,80.9,0,0,0-25.519-17.322,77.958,77.958,0,0,0-31.349-6.337,78.141,78.141,0,0,0-31.265,6.337,81.649,81.649,0,0,0-25.688,17.322,81.919,81.919,0,0,0-17.323,25.6A77.958,77.958,0,0,0,988.312-78.585Zm183.534-64.22a15.766,15.766,0,0,1,4.9-11.83,16.621,16.621,0,0,1,12-4.732,16.426,16.426,0,0,1,11.83,4.725,15.735,15.735,0,0,1,4.9,11.815v64.809a61.755,61.755,0,0,0,2.535,18.311,42.21,42.21,0,0,0,7.182,14.007,32.1,32.1,0,0,0,11.323,9.03,34.5,34.5,0,0,0,15.125,3.207,37.07,37.07,0,0,0,15.633-3.292,37.96,37.96,0,0,0,12.506-9.2,42.733,42.733,0,0,0,8.281-13.84,49.4,49.4,0,0,0,2.958-17.383v-65.147a16.149,16.149,0,0,1,4.816-11.9,16.2,16.2,0,0,1,11.915-4.81,17.159,17.159,0,0,1,6.506,1.268,16.116,16.116,0,0,1,5.408,3.549,17.507,17.507,0,0,1,3.633,5.324,16.043,16.043,0,0,1,1.352,6.591V-16.562a16.043,16.043,0,0,1-1.352,6.591,16.8,16.8,0,0,1-3.718,5.324,18.3,18.3,0,0,1-5.493,3.634,16.637,16.637,0,0,1-6.676,1.352,15.457,15.457,0,0,1-11.745-4.926,16.915,16.915,0,0,1-4.647-12.058v-2.379a73.622,73.622,0,0,1-20.28,14.1,53.992,53.992,0,0,1-22.984,5.1,60.638,60.638,0,0,1-26.871-5.915,62.2,62.2,0,0,1-20.872-16.393,75.269,75.269,0,0,1-13.435-24.843,99.4,99.4,0,0,1-4.732-31.265Zm210.236.676A84.934,84.934,0,0,1,1405.4-154.72a80.577,80.577,0,0,1,27.04-4.478h.676q8.281,0,12.844,4.732a16.583,16.583,0,0,1,4.563,12,15.7,15.7,0,0,1-5.07,12,17.42,17.42,0,0,1-12.337,4.732h-.676a48.773,48.773,0,0,0-19.52,3.971,50.337,50.337,0,0,0-16.055,10.9,51.794,51.794,0,0,0-10.816,16.224,50.216,50.216,0,0,0-3.972,19.942v57.967a16.184,16.184,0,0,1-4.816,11.915A16.184,16.184,0,0,1,1365.351,0a17.159,17.159,0,0,1-6.506-1.268,16.117,16.117,0,0,1-5.408-3.549,17.507,17.507,0,0,1-3.633-5.324,16.043,16.043,0,0,1-1.352-6.591V-142.467a16.043,16.043,0,0,1,1.352-6.591,17.507,17.507,0,0,1,3.633-5.324,17.232,17.232,0,0,1,5.408-3.633,16.637,16.637,0,0,1,6.676-1.352,16.044,16.044,0,0,1,6.591,1.352,16.475,16.475,0,0,1,5.239,3.633,17.042,17.042,0,0,1,3.464,5.324,16.965,16.965,0,0,1,1.267,6.591Zm288.99,125.567a15.9,15.9,0,0,1-4.817,11.83A16.129,16.129,0,0,1,1654.51,0,17.158,17.158,0,0,1,1648-1.268a17.067,17.067,0,0,1-5.493-3.549,17.094,17.094,0,0,1-3.718-5.239,15.465,15.465,0,0,1-1.352-6.507V-99.2a30.4,30.4,0,0,0-2.113-10.562,26.209,26.209,0,0,0-5.323-8.366,23.246,23.246,0,0,0-8.112-5.492,26.874,26.874,0,0,0-10.309-1.943,31.75,31.75,0,0,0-11.069,2.028,33.577,33.577,0,0,0-9.8,5.577,30.644,30.644,0,0,0-7.1,8.366,21.464,21.464,0,0,0-2.958,10.225v1.014q-.169.169,0,.676a2.705,2.705,0,0,1,0,1.352v79.6a16.183,16.183,0,0,1-4.817,11.915A16.184,16.184,0,0,1,1563.926,0a17.175,17.175,0,0,1-6.507-1.266,16.118,16.118,0,0,1-5.408-3.545,17.486,17.486,0,0,1-3.634-5.318,16.014,16.014,0,0,1-1.352-6.583v-125.6a16.014,16.014,0,0,1,1.352-6.583,16.779,16.779,0,0,1,3.718-5.318,18.627,18.627,0,0,1,5.408-3.63,16.057,16.057,0,0,1,6.591-1.351,15.4,15.4,0,0,1,10.816,4.035,17.046,17.046,0,0,1,5.408,9.921,57.233,57.233,0,0,1,15.295-10.173,43.17,43.17,0,0,1,18-3.783,54.912,54.912,0,0,1,24.421,5.323,55.474,55.474,0,0,1,18.505,14.45,75.714,75.714,0,0,1,22.477-14.45,66.2,66.2,0,0,1,25.857-5.323,55.237,55.237,0,0,1,23.322,4.811,53.638,53.638,0,0,1,17.914,13.167,59.729,59.729,0,0,1,11.492,19.5,69.052,69.052,0,0,1,4.056,23.8v81.374a15.878,15.878,0,0,1-4.817,11.817A16.138,16.138,0,0,1,1745.094,0a17.159,17.159,0,0,1-6.506-1.268,17.067,17.067,0,0,1-5.493-3.549,17.094,17.094,0,0,1-3.718-5.239,15.465,15.465,0,0,1-1.352-6.507V-98.527A33.31,33.31,0,0,0,1726-109.259a24.967,24.967,0,0,0-5.323-8.619,24.561,24.561,0,0,0-8.2-5.661A26.331,26.331,0,0,0,1702-125.567a30.625,30.625,0,0,0-11.07,2.112,35.127,35.127,0,0,0-9.8,5.661,29.4,29.4,0,0,0-7.013,8.366,23.654,23.654,0,0,0-3.042,10.225Zm146.354-62.023a44.813,44.813,0,0,1,3.718-18.252,48.088,48.088,0,0,1,10.055-14.788,46.633,46.633,0,0,1,14.872-9.971,45.892,45.892,0,0,1,18.167-3.634,46.317,46.317,0,0,1,18.337,3.634,46.635,46.635,0,0,1,14.872,9.971,46.889,46.889,0,0,1,9.971,14.788,45.709,45.709,0,0,1,3.634,18.252,45.892,45.892,0,0,1-3.634,18.168,46.633,46.633,0,0,1-9.971,14.872,47.808,47.808,0,0,1-14.872,10.056,45.407,45.407,0,0,1-18.337,3.718,44.991,44.991,0,0,1-18.167-3.718A47.807,47.807,0,0,1,1831.2-45.546a47.807,47.807,0,0,1-10.055-14.872A44.992,44.992,0,0,1,1817.426-78.585Zm-33.8,0a77.958,77.958,0,0,0,6.338,31.35,81.916,81.916,0,0,0,17.323,25.6A81.649,81.649,0,0,0,1832.974-4.31a78.141,78.141,0,0,0,31.265,6.338,77.958,77.958,0,0,0,31.349-6.338,80.9,80.9,0,0,0,25.519-17.323,82.648,82.648,0,0,0,17.238-25.6,77.958,77.958,0,0,0,6.338-31.35,77.958,77.958,0,0,0-6.338-31.35,82.648,82.648,0,0,0-17.238-25.6,80.9,80.9,0,0,0-25.519-17.322,77.958,77.958,0,0,0-31.349-6.337,78.141,78.141,0,0,0-31.265,6.337,81.65,81.65,0,0,0-25.688,17.322,81.917,81.917,0,0,0-17.323,25.6A77.958,77.958,0,0,0,1783.626-78.585Zm245.9,24,41.405-94.471a17.857,17.857,0,0,1,3.971-5.493,17.355,17.355,0,0,1,5.408-3.465,16.68,16.68,0,0,1,6.253-1.183,15.062,15.062,0,0,1,6.507,1.521,18.945,18.945,0,0,1,5.577,3.971,16.425,16.425,0,0,1,3.549,5.492,16.405,16.405,0,0,1,1.1,6.422,16.206,16.206,0,0,1-1.605,6.591L2045.069-10.14a31.365,31.365,0,0,1-3.38,4.9,5.885,5.885,0,0,1-1.183,1.183,18.856,18.856,0,0,1-4.056,2.535,1.742,1.742,0,0,1-.676.338h-.169l-.338.169A21.1,21.1,0,0,1,2030.873,0h-1.014a23.189,23.189,0,0,1-2.873-.169l-2.028-.338q-.845-.338-1.859-.676a4.266,4.266,0,0,0-1.014-.507,15.346,15.346,0,0,1-4.732-3.549,13.646,13.646,0,0,1-3.38-4.9l-56.784-125.229a16.2,16.2,0,0,1-1.605-6.591,16.407,16.407,0,0,1,1.1-6.422,17.1,17.1,0,0,1,3.464-5.493,17.857,17.857,0,0,1,5.492-3.971,15.062,15.062,0,0,1,6.507-1.521,16.68,16.68,0,0,1,6.253,1.183,16.663,16.663,0,0,1,5.408,3.549,18.946,18.946,0,0,1,3.972,5.577Zm222.742-8.788a16.463,16.463,0,0,0,11.915-4.478,15.362,15.362,0,0,0,4.647-11.577,77.194,77.194,0,0,0-6.676-31.1,82.522,82.522,0,0,0-17.491-25.35,82.177,82.177,0,0,0-25.6-17.069,78.444,78.444,0,0,0-31.18-6.253,78.559,78.559,0,0,0-31.434,6.337,82.376,82.376,0,0,0-25.688,17.238,81.812,81.812,0,0,0-17.407,25.6,77.669,77.669,0,0,0-6.422,31.434,77.669,77.669,0,0,0,6.422,31.434,81.812,81.812,0,0,0,17.407,25.6A81.189,81.189,0,0,0,2156.44-4.394a79.475,79.475,0,0,0,31.434,6.253A96.225,96.225,0,0,0,2205.281.423a74.364,74.364,0,0,0,14.112-3.972,60.058,60.058,0,0,0,11.239-5.831,65.736,65.736,0,0,0,8.788-7.013q5.915-4.9,6.338-11.07a17.475,17.475,0,0,0-2.789-11.069,19.019,19.019,0,0,0-3.38-4.31,11.856,11.856,0,0,0-4.732-2.788,17.123,17.123,0,0,0-8.112-.761,18.514,18.514,0,0,0-8.619,3.972,36.528,36.528,0,0,1-12.168,8.7q-7.267,3.3-18.083,3.3a44.508,44.508,0,0,1-14.788-2.451,45.634,45.634,0,0,1-12.76-6.845,44.877,44.877,0,0,1-9.886-10.478,45.5,45.5,0,0,1-6.168-13.182Zm-109-28.054A44.878,44.878,0,0,1,2149-105.541a45.624,45.624,0,0,1,9.971-11.323,45.431,45.431,0,0,1,13.435-7.521,46.843,46.843,0,0,1,15.971-2.7,47.565,47.565,0,0,1,16.055,2.7,47.451,47.451,0,0,1,13.6,7.436,44.912,44.912,0,0,1,10.14,11.239,46.555,46.555,0,0,1,6,14.281ZM2415.686-65.4q4.225,1.352,9.042,2.873a46.752,46.752,0,0,1,8.873,3.8,22.939,22.939,0,0,1,6.76,5.662,12.839,12.839,0,0,1,2.7,8.281,12.9,12.9,0,0,1-2.028,7.183,16.906,16.906,0,0,1-5.492,5.239,29.971,29.971,0,0,1-7.859,3.3,34.305,34.305,0,0,1-8.957,1.183q-10.478,0-17.323-3.634A34.9,34.9,0,0,1,2389.153-43.1a20.988,20.988,0,0,0-7.774-6.253,17.661,17.661,0,0,0-8.281-1.605,16.249,16.249,0,0,0-7.352,2.2,14.816,14.816,0,0,0-5.239,5.154,14.82,14.82,0,0,0-2.028,7.521,18.448,18.448,0,0,0,2.62,9.216,43.322,43.322,0,0,0,10.563,13.088,60.542,60.542,0,0,0,14.365,8.923,74.451,74.451,0,0,0,16.393,5.1A88.61,88.61,0,0,0,2418.9,1.859a66.518,66.518,0,0,0,22.562-3.718,57.717,57.717,0,0,0,18-10.14,46.833,46.833,0,0,0,11.915-15.125,41.88,41.88,0,0,0,4.31-18.844q0-10.816-4.141-18.421A41.121,41.121,0,0,0,2460.386-77.4a68.716,68.716,0,0,0-16.139-9.126q-9.126-3.718-19.266-6.929-6.253-1.859-11.492-3.8a50.155,50.155,0,0,1-9.042-4.31,20.839,20.839,0,0,1-6-5.408,11.8,11.8,0,0,1-2.2-7.1,12.845,12.845,0,0,1,6.929-12q6.929-3.887,17.238-3.887a26.413,26.413,0,0,1,8.2,1.183,38.027,38.027,0,0,1,6.929,3.042,56.46,56.46,0,0,1,6.506,4.309q3.211,2.451,6.76,4.986a12.663,12.663,0,0,0,8.957.76,15.624,15.624,0,0,0,7.6-4.647,13.491,13.491,0,0,0,3.549-7.357,15.629,15.629,0,0,0-1.69-9.245,29.247,29.247,0,0,0-8.281-10.028,51.515,51.515,0,0,0-12.168-7.054,73.538,73.538,0,0,0-14.2-4.249,76.131,76.131,0,0,0-14.534-1.444,66.587,66.587,0,0,0-20.871,3.3,57.848,57.848,0,0,0-17.745,9.295A46.079,46.079,0,0,0,2367.1-132.5a39.934,39.934,0,0,0-4.647,19.266,33.419,33.419,0,0,0,4.479,17.576,44.227,44.227,0,0,0,12,12.929A88.535,88.535,0,0,0,2396-73.093Q2405.546-68.952,2415.686-65.4ZM2499-195.7a17.5,17.5,0,0,0,1.521,7.267,19.733,19.733,0,0,0,4.056,5.915,18.521,18.521,0,0,0,5.915,3.971,18.383,18.383,0,0,0,7.267,1.436,18.383,18.383,0,0,0,7.267-1.436,18.522,18.522,0,0,0,5.915-3.971,19.732,19.732,0,0,0,4.056-5.915,17.5,17.5,0,0,0,1.521-7.267,18.088,18.088,0,0,0-1.521-7.351,19.438,19.438,0,0,0-4.056-6,18.523,18.523,0,0,0-5.915-3.971,18.383,18.383,0,0,0-7.267-1.437,18.383,18.383,0,0,0-7.267,1.437,18.522,18.522,0,0,0-5.915,3.971,19.439,19.439,0,0,0-4.056,6A18.088,18.088,0,0,0,2499-195.7Zm35.659,53.235a16.965,16.965,0,0,0-1.268-6.591,17.044,17.044,0,0,0-3.464-5.324,16.473,16.473,0,0,0-5.239-3.633,16.044,16.044,0,0,0-6.591-1.352,16.044,16.044,0,0,0-6.591,1.352,18.623,18.623,0,0,0-5.408,3.633,16.8,16.8,0,0,0-3.718,5.324,16.043,16.043,0,0,0-1.352,6.591V-16.731a16.043,16.043,0,0,0,1.352,6.591,17.51,17.51,0,0,0,3.634,5.324,16.116,16.116,0,0,0,5.408,3.549A17.16,17.16,0,0,0,2517.931,0a16.184,16.184,0,0,0,11.915-4.817,16.184,16.184,0,0,0,4.816-11.915ZM2692.339-16.562a15.9,15.9,0,0,1-4.817,11.83A16.128,16.128,0,0,1,2675.777,0a17.16,17.16,0,0,1-6.507-1.268,17.069,17.069,0,0,1-5.492-3.549,17.092,17.092,0,0,1-3.718-5.239,15.463,15.463,0,0,1-1.352-6.507V-99.2a30.4,30.4,0,0,0-2.113-10.562,26.207,26.207,0,0,0-5.323-8.366,23.245,23.245,0,0,0-8.112-5.492,26.875,26.875,0,0,0-10.309-1.943,31.751,31.751,0,0,0-11.07,2.028,33.58,33.58,0,0,0-9.8,5.577,30.65,30.65,0,0,0-7.1,8.366,21.461,21.461,0,0,0-2.958,10.225v1.014q-.169.169,0,.676a2.708,2.708,0,0,1,0,1.352v79.6a16.184,16.184,0,0,1-4.816,11.915A16.184,16.184,0,0,1,2585.193,0a17.174,17.174,0,0,1-6.507-1.266,16.12,16.12,0,0,1-5.408-3.545,17.486,17.486,0,0,1-3.634-5.318,16.012,16.012,0,0,1-1.352-6.583v-125.6a16.012,16.012,0,0,1,1.352-6.583,16.777,16.777,0,0,1,3.718-5.318,18.628,18.628,0,0,1,5.408-3.63,16.058,16.058,0,0,1,6.591-1.351,15.4,15.4,0,0,1,10.816,4.035,17.046,17.046,0,0,1,5.408,9.921,57.236,57.236,0,0,1,15.294-10.173,43.17,43.17,0,0,1,18-3.783,54.911,54.911,0,0,1,24.42,5.323,55.477,55.477,0,0,1,18.506,14.45,75.711,75.711,0,0,1,22.477-14.45,66.2,66.2,0,0,1,25.857-5.323,55.237,55.237,0,0,1,23.322,4.811,53.638,53.638,0,0,1,17.914,13.167,59.731,59.731,0,0,1,11.492,19.5,69.054,69.054,0,0,1,4.056,23.8v81.374a15.877,15.877,0,0,1-4.817,11.817A16.137,16.137,0,0,1,2766.361,0a17.16,17.16,0,0,1-6.507-1.268,17.069,17.069,0,0,1-5.492-3.549,17.092,17.092,0,0,1-3.718-5.239,15.463,15.463,0,0,1-1.352-6.507V-98.527a33.31,33.31,0,0,0-2.028-10.732,24.97,24.97,0,0,0-5.323-8.619,24.563,24.563,0,0,0-8.2-5.661,26.333,26.333,0,0,0-10.478-2.028,30.625,30.625,0,0,0-11.07,2.112,35.127,35.127,0,0,0-9.8,5.661,29.394,29.394,0,0,0-7.013,8.366,23.656,23.656,0,0,0-3.042,10.225Zm202.8,18.59a78.839,78.839,0,0,1-25.1-3.972,79.711,79.711,0,0,1-21.885-11.238V40.56a15.766,15.766,0,0,1-4.9,11.83,16.621,16.621,0,0,1-12,4.732,16.334,16.334,0,0,1-11.915-4.732,15.9,15.9,0,0,1-4.817-11.83v-183.2a15.9,15.9,0,0,1,4.817-11.83,16.334,16.334,0,0,1,11.915-4.732,16.459,16.459,0,0,1,6.168,1.183,17.715,17.715,0,0,1,5.239,3.211,16.472,16.472,0,0,1,3.718,4.817,16.826,16.826,0,0,1,1.774,6,84.412,84.412,0,0,1,21.885-11.154,77.34,77.34,0,0,1,25.1-4.056,77.959,77.959,0,0,1,31.35,6.337,80.9,80.9,0,0,1,25.519,17.322,82.653,82.653,0,0,1,17.238,25.6,77.96,77.96,0,0,1,6.337,31.35,77.96,77.96,0,0,1-6.337,31.35,82.652,82.652,0,0,1-17.238,25.6A80.9,80.9,0,0,1,2926.489-4.31,77.958,77.958,0,0,1,2895.139,2.028Zm-46.813-80.613a44.99,44.99,0,0,0,3.718,18.168A47.812,47.812,0,0,0,2862.1-45.546a47.809,47.809,0,0,0,14.872,10.056,44.991,44.991,0,0,0,18.167,3.718,45.407,45.407,0,0,0,18.337-3.718,47.8,47.8,0,0,0,14.872-10.056,46.628,46.628,0,0,0,9.971-14.872,45.892,45.892,0,0,0,3.634-18.168,45.709,45.709,0,0,0-3.634-18.252,46.885,46.885,0,0,0-9.971-14.788,46.631,46.631,0,0,0-14.872-9.971,46.318,46.318,0,0,0-18.337-3.634,45.892,45.892,0,0,0-18.167,3.634,46.635,46.635,0,0,0-14.872,9.971,48.092,48.092,0,0,0-10.055,14.788A44.811,44.811,0,0,0,2848.326-78.585Zm185.055-121.173a15.9,15.9,0,0,0-4.816-11.83,16.335,16.335,0,0,0-11.915-4.732,16.621,16.621,0,0,0-12,4.732,15.766,15.766,0,0,0-4.9,11.83v183.2a15.766,15.766,0,0,0,4.9,11.83,16.621,16.621,0,0,0,12,4.732,16.334,16.334,0,0,0,11.915-4.732,15.9,15.9,0,0,0,4.816-11.83ZM3203.057-63.375a16.463,16.463,0,0,0,11.915-4.478,15.362,15.362,0,0,0,4.647-11.577,77.194,77.194,0,0,0-6.676-31.1,82.522,82.522,0,0,0-17.491-25.35,82.177,82.177,0,0,0-25.6-17.069,78.444,78.444,0,0,0-31.18-6.253,78.559,78.559,0,0,0-31.434,6.337,82.376,82.376,0,0,0-25.688,17.238,81.812,81.812,0,0,0-17.407,25.6,77.669,77.669,0,0,0-6.422,31.434,77.669,77.669,0,0,0,6.422,31.434,81.812,81.812,0,0,0,17.407,25.6,81.189,81.189,0,0,0,25.688,17.154,79.475,79.475,0,0,0,31.434,6.253A96.225,96.225,0,0,0,3156.075.423a74.364,74.364,0,0,0,14.112-3.972,60.058,60.058,0,0,0,11.239-5.831,65.736,65.736,0,0,0,8.788-7.013q5.915-4.9,6.338-11.07a17.475,17.475,0,0,0-2.789-11.069,19.025,19.025,0,0,0-3.38-4.31,11.858,11.858,0,0,0-4.732-2.788,17.123,17.123,0,0,0-8.112-.761,18.514,18.514,0,0,0-8.619,3.972,36.528,36.528,0,0,1-12.168,8.7q-7.267,3.3-18.083,3.3a44.508,44.508,0,0,1-14.788-2.451,45.634,45.634,0,0,1-12.76-6.845,44.877,44.877,0,0,1-9.886-10.478,45.5,45.5,0,0,1-6.168-13.182Zm-109-28.054a44.878,44.878,0,0,1,5.746-14.112,45.624,45.624,0,0,1,9.971-11.323,45.431,45.431,0,0,1,13.435-7.521,46.843,46.843,0,0,1,15.971-2.7,47.565,47.565,0,0,1,16.055,2.7,47.451,47.451,0,0,1,13.6,7.436,44.912,44.912,0,0,1,10.14,11.239,46.555,46.555,0,0,1,6,14.281Zm190.8,73.346a16.954,16.954,0,0,0-1.437-6.844,18.488,18.488,0,0,0-3.887-5.746,18.483,18.483,0,0,0-5.746-3.887A16.956,16.956,0,0,0,3266.939-36a17.778,17.778,0,0,0-7.182,1.437,17.481,17.481,0,0,0-5.662,3.887,19.273,19.273,0,0,0-3.8,5.746,16.954,16.954,0,0,0-1.437,6.844,17.777,17.777,0,0,0,1.437,7.183,18.185,18.185,0,0,0,3.8,5.661,18.186,18.186,0,0,0,5.662,3.8A17.778,17.778,0,0,0,3266.939,0a16.956,16.956,0,0,0,6.844-1.437,19.271,19.271,0,0,0,5.746-3.8,17.483,17.483,0,0,0,3.887-5.661A17.777,17.777,0,0,0,3284.853-18.083Zm-35.321-50.7a16.832,16.832,0,0,0,4.732,12.168,15.767,15.767,0,0,0,11.83,4.9,16.521,16.521,0,0,0,12.168-4.9,16.521,16.521,0,0,0,4.9-12.168V-199.251a17.6,17.6,0,0,0-1.268-6.675,16.115,16.115,0,0,0-3.549-5.408,17.509,17.509,0,0,0-5.323-3.633,16.044,16.044,0,0,0-6.591-1.352,16.043,16.043,0,0,0-6.591,1.352,17.509,17.509,0,0,0-5.323,3.633,17.231,17.231,0,0,0-3.634,5.408,16.636,16.636,0,0,0-1.352,6.675Z" transform="translate(1042 6076)" fill="#fff"/>
            </g>
        </g>
        <line id="Line_2" data-name="Line 2" x2="3283" transform="translate(1047.5 5763.5)" fill="none" stroke="#fff" stroke-linecap="round" stroke-width="10"/>
    </g>
</svg>
