<svg xmlns="http://www.w3.org/2000/svg" width="14" height="12.078" viewBox="0 0 14 12.078"><defs><style>.a{fill:#0f0c75;}.b{fill:#fdc403;}</style></defs><g transform="translate(-9.29 -7.828)"><path class="a" d="M25.518,16.875H13.162a.7.7,0,1,0,0,1.375H25.518a.7.7,0,1,0,0-1.375Z" transform="translate(-3.05 -3.695)"/><path class="b" d="M18.673,25.594H12.735c-.217,0-.4.309-.4.687s.178.687.4.687h5.938c.217,0,.4-.309.4-.687S18.89,25.594,18.673,25.594Z" transform="translate(-3.05 -7.062)"/><path class="a" d="M13.162,9.531H25.518a.766.766,0,0,0,.822-.687.766.766,0,0,0-.822-.687H13.162a.766.766,0,0,0-.822.687A.766.766,0,0,0,13.162,9.531Z" transform="translate(-3.05 -0.328)"/></g></svg>