<svg xmlns="http://www.w3.org/2000/svg" width="27.683" height="42.2" viewBox="0 0 27.683 42.2"><defs><style>.a{fill:#0f0c75;}.b{fill:none;stroke:#707070;}</style></defs><g transform="translate(7546.535 -749.057)"><g transform="translate(-7546.535 749.057)"><path class="a" d="M115.133,7.031a.618.618,0,0,0,.618-.618V5.9a5.911,5.911,0,0,0-5.9-5.9,4.547,4.547,0,0,0-2.857,1.013l-.078.063-.38-.264A4.512,4.512,0,0,0,103.943,0h-9.97a5.911,5.911,0,0,0-5.9,5.9v13.22a2.06,2.06,0,0,0,2.057,2.057h.983a11.4,11.4,0,0,0,5.874,6.748,6.211,6.211,0,0,0-5.047,6.092v6.849A1.331,1.331,0,0,0,93.264,42.2h11.51a.618.618,0,0,0,0-1.236H93.264a.093.093,0,0,1-.093-.093V34.022a4.971,4.971,0,0,1,4.965-4.965h.929V29.9a2.841,2.841,0,1,0,5.682,0v-.847h.933a5.1,5.1,0,0,1,5.11,4.965v6.849c0,.051-.187.093-.238.093h-3.308a.618.618,0,1,0,0,1.236h3.308a1.331,1.331,0,0,0,1.329-1.329V34.022a6.211,6.211,0,0,0-5.047-6.092,11.4,11.4,0,0,0,5.874-6.748h.983a2.06,2.06,0,0,0,2.057-2.057V8.884c0-6.033-.277-1.853-.618-1.853s-.618-5.92-.618,1.853v10.24a.822.822,0,0,1-.821.821h-.661a11.356,11.356,0,0,0,.221-2.234V11.223a.917.917,0,0,0-.864-.913c-2.888-.167-5.152-.729-6.809-2.929a.887.887,0,0,0-1.186-.207c-3.356,2.168-7.344,3.14-12.932,3.15a.9.9,0,0,0-.9.9v5.9c0,.341.277-.967.618-.967s.618,1.308.618.967V11.558c5.52-.048,9.557-1.034,13-3.175,1.965,2.414,4.612,2.965,7.221,3.142v6.187a10.109,10.109,0,1,1-20.217,0v-.585c0-.341-.277-1.2-.618-1.2s-.618.862-.618,1.2v.585a11.348,11.348,0,0,0,.221,2.234h-.661a.822.822,0,0,1-.821-.821V5.9a4.673,4.673,0,0,1,4.668-4.668h9.97a3.283,3.283,0,0,1,1.883.59l.6.421a.877.877,0,0,0,1.048-.039l.29-.235a3.307,3.307,0,0,1,2.078-.737A4.673,4.673,0,0,1,114.514,5.9v.508a.618.618,0,0,0,.618.618Zm-11.62,21.912v.96a1.6,1.6,0,1,1-3.209,0v-.961a11.349,11.349,0,0,0,3.209,0Z" transform="translate(-88.068)"/></g><path class="b" d="M30,0" transform="translate(-7558.08 778.36)"/><g transform="translate(-7540.161 761.698)"><path class="a" d="M193.859,198.165a.619.619,0,0,0-.619.619v.436a.619.619,0,1,0,1.237,0v-.436A.619.619,0,0,0,193.859,198.165Z" transform="translate(-190.987 -194.463)"/><path class="a" d="M303.759,199.22a.619.619,0,0,0,1.237,0v-.436a.619.619,0,0,0-1.237,0Z" transform="translate(-292.391 -194.463)"/><path class="a" d="M209.166,263.732a4.8,4.8,0,0,1-6.872,0,.619.619,0,0,0-.928.818,6.035,6.035,0,0,0,8.728,0,.619.619,0,0,0-.928-.818Z" transform="translate(-198.301 -254.431)"/><path class="a" d="M168.9,153.365a2.65,2.65,0,0,0-2.887,1.212.619.619,0,1,0,1.065.629,1.425,1.425,0,0,1,1.518-.642.619.619,0,0,0,.3-1.2Z" transform="translate(-165.924 -153.282)"/><path class="a" d="M305.14,154.566a1.406,1.406,0,0,1,1.52.646.619.619,0,0,0,1.063-.633,2.65,2.65,0,0,0-2.887-1.212.619.619,0,0,0,.3,1.2Z" transform="translate(-292.952 -153.284)"/></g></g></svg>