<svg xmlns="http://www.w3.org/2000/svg" width="32.438" height="32.312" viewBox="0 0 32.438 32.312"><defs><style>.a{fill:#0f0c75;}.b{fill:#fff;stroke:#fdc403;}.c{stroke:none;}.d{fill:none;}</style></defs><g transform="translate(-79.562 -509)"><path class="a" d="M30.32,9.159a2.761,2.761,0,0,0-3.51-4.248A16.27,16.27,0,0,0,6.9,3.922,3.432,3.432,0,0,0,2.237,8.955a16.114,16.114,0,0,0,.418,17.053,2.559,2.559,0,0,0,3.423,3.748,16.266,16.266,0,0,0,21.609-1.184A16.114,16.114,0,0,0,30.32,9.159ZM25.154,20.466c.109-.931.172-1.883.188-2.841h6.092c-.3,1.495-1.976,2.928-4.715,4a2.778,2.778,0,0,0-1.564-1.164Zm-2.577,2.651a1.811,1.811,0,1,1,1.811,1.8A1.808,1.808,0,0,1,22.578,23.117Zm-.953-.154a34.385,34.385,0,0,1-4.927.409V17.625h7.687c-.016.924-.077,1.842-.182,2.739a2.767,2.767,0,0,0-2.577,2.6ZM7.739,14.019a.478.478,0,0,0,.536-.413c.081-.624.184-1.237.307-1.835a32.565,32.565,0,0,1,7.159-.849v5.746H8.054c.006-.368.019-.736.039-1.1a.479.479,0,0,0-.956-.054c-.021.381-.035.767-.041,1.153H1.007c.285-1.4,1.8-2.773,4.27-3.824a19.883,19.883,0,0,1,2.276-.8q-.13.7-.226,1.439a.478.478,0,0,0,.413.536Zm17.6,2.65a27.867,27.867,0,0,0-.455-4.625,19.886,19.886,0,0,1,2.275.8c2.465,1.05,3.985,2.422,4.27,3.824Zm-.957,0H16.7V10.922a32.559,32.559,0,0,1,7.162.849,26.685,26.685,0,0,1,.525,4.9ZM16.7,9.965V1.975c1.951.213,3.789,1.727,5.218,4.317a18.731,18.731,0,0,1,1.707,4.442A33.988,33.988,0,0,0,16.7,9.965Zm-.957,0a33.988,33.988,0,0,0-6.92.769,17.462,17.462,0,0,1,2.386-5.551c1.327-1.93,2.886-3.03,4.534-3.208ZM7.1,17.626a27.866,27.866,0,0,0,.455,4.625,19.885,19.885,0,0,1-2.275-.8c-2.465-1.05-3.985-2.422-4.27-3.824Zm.957,0h7.687v5.746a32.559,32.559,0,0,1-7.162-.849,26.685,26.685,0,0,1-.525-4.9Zm7.687,6.7v7.989c-1.951-.213-3.789-1.727-5.218-4.317a18.731,18.731,0,0,1-1.707-4.442A33.985,33.985,0,0,0,15.741,24.329Zm14.5-17.185a1.811,1.811,0,1,1-1.811-1.8A1.808,1.808,0,0,1,30.242,7.145ZM26.14,5.6a2.737,2.737,0,0,0-.477,1.547,2.769,2.769,0,0,0,3.853,2.538,15.1,15.1,0,0,1,1.709,4.687,10.687,10.687,0,0,0-3.688-2.405,21.4,21.4,0,0,0-2.869-.974,20.046,20.046,0,0,0-1.915-5.16,11.319,11.319,0,0,0-2.742-3.407A15.23,15.23,0,0,1,26.14,5.6ZM2.126,6.475A2.483,2.483,0,1,1,4.609,8.946,2.48,2.48,0,0,1,2.126,6.475Zm.893,3.039a3.429,3.429,0,0,0,4.5-4.858,15.142,15.142,0,0,1,4.917-2.24c-2.1,1.67-3.782,4.708-4.67,8.575a21.386,21.386,0,0,0-2.869.974A10.687,10.687,0,0,0,1.213,14.37,15.092,15.092,0,0,1,3.019,9.514Zm1.59,19.747a1.6,1.6,0,1,1,1.608-1.6A1.606,1.606,0,0,1,4.609,29.261Zm2.141-.194a2.535,2.535,0,0,0,.424-1.406A2.565,2.565,0,0,0,3.4,25.4a15.035,15.035,0,0,1-2.194-5.483A10.681,10.681,0,0,0,4.9,22.33,21.4,21.4,0,0,0,7.77,23.3a20.046,20.046,0,0,0,1.915,5.16,11.326,11.326,0,0,0,2.736,3.4A15.288,15.288,0,0,1,6.75,29.067Zm20.262-1.174a15.183,15.183,0,0,1-7.024,3.988,10.586,10.586,0,0,0,2.307-2.641.479.479,0,1,0-.808-.513c-1.357,2.139-3.042,3.4-4.789,3.591V24.329a35.374,35.374,0,0,0,5.041-.415,2.773,2.773,0,0,0,1.286,1.6c-.183.511-.383,1-.6,1.47a.479.479,0,1,0,.869.4c.227-.492.438-1.013.631-1.55a2.766,2.766,0,0,0,3.229-2.72,2.75,2.75,0,0,0-.068-.6,11.98,11.98,0,0,0,3.771-2.222q.2-.182.368-.368A15.069,15.069,0,0,1,27.012,27.894Z" transform="translate(79.562 508.009)"/><g class="b" transform="translate(80 510)"><circle class="c" cx="4" cy="4" r="4"/><circle class="d" cx="4" cy="4" r="3.5"/></g></g></svg>