<svg xmlns="http://www.w3.org/2000/svg" width="36.94" height="39.408" viewBox="0 0 36.94 39.408"><defs><style>.a{fill:#0f0c75;}.b{fill:#fdc403;}</style></defs><g transform="translate(-16.032 0.001)"><g transform="translate(16.032 -0.001)"><g transform="translate(0 0)"><path class="a" d="M52.646,8.695,34.753.057a.577.577,0,0,0-.5,0L16.358,8.695a.577.577,0,0,0-.326.52V30.193a.577.577,0,0,0,.326.52l17.893,8.638a.577.577,0,0,0,.5,0l17.893-8.638a.577.577,0,0,0,.326-.52V9.215A.577.577,0,0,0,52.646,8.695ZM34.5,1.218l16.565,8-4.8,2.318a.572.572,0,0,0-.1-.062L29.715,3.529ZM28.411,4.182l16.541,7.985L41.565,13.8,25.03,5.82Zm16.928,9.08v6.046l-3.164,1.528V14.79ZM51.818,29.83,35.08,37.911v-19.7l3.993-1.927a.577.577,0,1,0-.5-1.04L34.5,17.212l-1.6-.773a.577.577,0,1,0-.5,1.04l1.525.736v19.7L17.187,29.83v-19.7l12.746,6.153a.577.577,0,0,0,.5-1.04l-12.5-6.033,5.735-2.768,17.341,8.371.008.01v6.927a.577.577,0,0,0,.828.52l4.319-2.085a.577.577,0,0,0,.326-.52V12.7l5.324-2.57v19.7Z" transform="translate(-16.032 0.001)"/></g></g><g transform="translate(18.496 26.266)"><path class="a" d="M51.5,342.587l-2.626-1.268a.577.577,0,1,0-.5,1.04L51,343.626a.577.577,0,0,0,.5-1.04Z" transform="translate(-48.048 -341.261)"/></g><g transform="translate(18.5 23.528)"><g transform="translate(0)"><path class="b" d="M53.963,308.18l-5.039-2.433a.577.577,0,0,0-.5,1.04l5.039,2.433a.577.577,0,0,0,.5-1.04Z" transform="translate(-48.096 -305.69)"/></g></g></g></svg>