<svg xmlns="http://www.w3.org/2000/svg" width="35.893" height="41.416" viewBox="0 0 35.893 41.416"><defs><style>.a{fill:#fdc403;}.b{fill:#0f0c75;}</style></defs><g transform="translate(-0.004 0)"><path class="a" d="M98.765,250.773a1.38,1.38,0,0,1,1.38,1.38.69.69,0,1,0,1.38,0,2.761,2.761,0,0,0-2.071-2.663V248.7a.69.69,0,0,0-1.38,0v.788a2.755,2.755,0,0,0,.69,5.424,1.38,1.38,0,1,1-1.38,1.38.69.69,0,0,0-1.38,0,2.761,2.761,0,0,0,2.071,2.663v.788a.69.69,0,1,0,1.38,0v-.786a2.755,2.755,0,0,0-.69-5.426,1.38,1.38,0,1,1,0-2.761Zm0,0" transform="translate(-87.717 -226.613)"/><path class="b" d="M100.836,200.012H96.694a.69.69,0,1,0,0,1.38h4.141a.69.69,0,0,0,0-1.38Zm0,0" transform="translate(-87.717 -182.754)"/><path class="b" d="M100.836,424.012H96.694a.69.69,0,0,0,0,1.38h4.141a.69.69,0,0,0,0-1.38Zm0,0" transform="translate(-87.717 -387.427)"/><path class="b" d="M35.063,26.576,24.93,9.026a11.623,11.623,0,0,0,1.644-2.048c1.151-1.864,1.356-3.633.578-4.98-1.548-2.682-6.437-2.66-11.13.049a17.077,17.077,0,0,0-1.794,1.21l-.557-.632a3.5,3.5,0,0,0-5.246,0L.879,11.175A3.5,3.5,0,0,0,0,13.49V35.2a6.219,6.219,0,0,0,6.212,6.212H15.88A6.219,6.219,0,0,0,22.092,35.2V13.49a3.488,3.488,0,0,0-.552-1.876h.005a16.861,16.861,0,0,0,2.341-1.633l9.982,17.284a4.831,4.831,0,0,1-1.768,6.6L23.732,38.7a4.789,4.789,0,0,1-1.173.478.69.69,0,0,0,.355,1.334,6.207,6.207,0,0,0,1.505-.616l8.369-4.832A6.212,6.212,0,0,0,35.063,26.576ZM20.711,35.2a4.837,4.837,0,0,1-4.832,4.832H6.216A4.837,4.837,0,0,1,1.384,35.2V13.49a2.119,2.119,0,0,1,.53-1.4L9.46,3.538a2.114,2.114,0,0,1,3.175,0l6.732,7.629a11.426,11.426,0,0,1-4.922,1.092,3.415,3.415,0,0,0,.054-.524,3.455,3.455,0,0,0-3.451-3.451.673.673,0,0,0-.221.045.683.683,0,0,0-.749.527,3.858,3.858,0,0,0,.337,2.8,3.74,3.74,0,0,0,2.013,1.613,2.062,2.062,0,0,1-3.451-1.537.69.69,0,1,0-1.38,0A3.447,3.447,0,0,0,13.942,13.6a8.085,8.085,0,0,0,.818.045,13.312,13.312,0,0,0,5.543-1.4,2.11,2.11,0,0,1,.408,1.238ZM13.119,11.736a2.06,2.06,0,0,1-.03.3,2.509,2.509,0,0,1-1.478-1.069A2.214,2.214,0,0,1,11.348,9.7,2.07,2.07,0,0,1,13.119,11.736Zm7.736-1.323c-.069.04-.138.074-.207.113l-5.5-6.235a15.657,15.657,0,0,1,1.567-1.046C20.6,1,24.835.746,25.956,2.693c.513.887.315,2.154-.557,3.565a9.882,9.882,0,0,1-1.187,1.53l-.007-.012A3.5,3.5,0,0,0,22.29,6.209l-2.7-.914A.69.69,0,0,0,19.147,6.6l2.7.909a2.121,2.121,0,0,1,1.159.949l.176.3a15.379,15.379,0,0,1-2.332,1.65Zm0,0" transform="translate(0 0)"/><path class="b" d="M272.1,282.239a.69.69,0,0,0,.943.252l4.782-2.761a.69.69,0,1,0-.69-1.2l-4.782,2.761A.69.69,0,0,0,272.1,282.239Zm0,0" transform="translate(-248.532 -254.416)"/><path class="b" d="M282.226,324.5a.69.69,0,0,0,.943.253l5.978-3.451a.691.691,0,0,0-.69-1.2l-5.978,3.451A.69.69,0,0,0,282.226,324.5Zm0,0" transform="translate(-257.787 -292.4)"/><path class="b" d="M280.417,246.563a.691.691,0,0,0,.345-.093l2.391-1.38a.69.69,0,1,0-.69-1.2l-2.391,1.38a.69.69,0,0,0,.345,1.288Zm0,0" transform="translate(-255.588 -222.764)"/></g></svg>