<svg xmlns="http://www.w3.org/2000/svg" width="29.227" height="29.34" viewBox="0 0 29.227 29.34"><defs><style>.a{fill:#707070;opacity:0.3;}</style></defs><path class="a" d="M18.8-79.807v14.613a16.317,16.317,0,0,1-.85,5.353,14.322,14.322,0,0,1-2.379,4.361,13.547,13.547,0,0,1-3.682,3.172A15.849,15.849,0,0,1,7.08-50.467V-56.7a9.345,9.345,0,0,0,2.605-1.359A6.208,6.208,0,0,0,11.3-59.9a6.784,6.784,0,0,0,.793-2.351,19.717,19.717,0,0,0,.2-2.945v-1.529H7.08V-79.807Zm17.5,0v14.613a16.317,16.317,0,0,1-.85,5.353,14.322,14.322,0,0,1-2.379,4.361A13.547,13.547,0,0,1,29.4-52.308a15.849,15.849,0,0,1-4.814,1.841V-56.7a9.345,9.345,0,0,0,2.605-1.359A5.527,5.527,0,0,0,28.745-59.9a7.619,7.619,0,0,0,.736-2.351,19.717,19.717,0,0,0,.2-2.945v-1.529h-5.1V-79.807Z" transform="translate(-7.08 79.807)"/></svg>