<svg xmlns="http://www.w3.org/2000/svg" width="38.189" height="44.514" viewBox="0 0 38.189 44.514"><defs><style>.a{fill:#0f0c75;}.b{fill:#fdc403;}</style></defs><g transform="translate(-36.379)"><g transform="translate(36.379 0)"><path class="a" d="M74.306,6.283a1.99,1.99,0,0,0-1.92-1.78A33.265,33.265,0,0,1,56.493.282a1.987,1.987,0,0,0-2.04,0,29.389,29.389,0,0,1-7.467,3.025.651.651,0,1,0,.332,1.259,30.73,30.73,0,0,0,7.8-3.166.686.686,0,0,1,.7,0A34.6,34.6,0,0,0,72.348,5.8a.684.684,0,0,1,.662.61A52.358,52.358,0,0,1,71.73,24.24,30.867,30.867,0,0,1,66.537,35.2a24.21,24.21,0,0,1-10.82,7.964.69.69,0,0,1-.488,0A24.211,24.211,0,0,1,44.409,35.2,30.869,30.869,0,0,1,39.216,24.24,52.356,52.356,0,0,1,37.936,6.415.684.684,0,0,1,38.6,5.8a39.374,39.374,0,0,0,5.708-.577.651.651,0,0,0-.226-1.282,38.067,38.067,0,0,1-5.518.558,1.99,1.99,0,0,0-1.92,1.78,53.712,53.712,0,0,0,1.318,18.291A32.158,32.158,0,0,0,43.377,36a25.493,25.493,0,0,0,11.391,8.388,1.989,1.989,0,0,0,1.41,0A25.493,25.493,0,0,0,67.569,36a32.159,32.159,0,0,0,5.419-11.423A53.716,53.716,0,0,0,74.306,6.283Z" transform="translate(-36.379 0)"/><path class="a" d="M80.15,51.578A45.6,45.6,0,0,0,81.2,66.553a26.682,26.682,0,0,0,4.326,9.395,20.067,20.067,0,0,0,9.118,6.841,1.716,1.716,0,0,0,1.215,0,20.066,20.066,0,0,0,9.118-6.84,26.681,26.681,0,0,0,4.326-9.395,45.6,45.6,0,0,0,1.05-14.975,1.716,1.716,0,0,0-1.655-1.534,26.3,26.3,0,0,1-12.567-3.336,1.712,1.712,0,0,0-1.758,0,26.3,26.3,0,0,1-12.567,3.336A1.716,1.716,0,0,0,80.15,51.578Zm14.89-3.753a.412.412,0,0,1,.423,0,27.64,27.64,0,0,0,13.2,3.52.41.41,0,0,1,.4.365,44.221,44.221,0,0,1-1.015,14.518c-2,7.763-6.253,12.925-12.644,15.342a.414.414,0,0,1-.294,0c-6.391-2.417-10.645-7.579-12.644-15.342A44.221,44.221,0,0,1,81.446,51.71a.41.41,0,0,1,.4-.365A27.639,27.639,0,0,0,95.04,47.825Z" transform="translate(-76.157 -42.425)"/><path class="b" d="M159.758,158.93a9.184,9.184,0,0,0,7.486-3.877.651.651,0,1,0-1.063-.752,7.825,7.825,0,1,1,1.182-2.535.651.651,0,1,0,1.259.33,9.165,9.165,0,1,0-8.865,6.834Z" transform="translate(-140.664 -128.378)"/><path class="b" d="M201.324,193.409a2.024,2.024,0,0,0-1.415.654l-3.27,3.541-.81-.782A2.037,2.037,0,1,0,193,199.751l2.308,2.23a2.026,2.026,0,0,0,1.415.572h.058a2.048,2.048,0,0,0,1.439-.654l4.683-5.072a2.037,2.037,0,0,0-1.578-3.417Zm.621,2.534-4.683,5.072a.736.736,0,0,1-1.051.03l-2.308-2.231a.735.735,0,0,1,1.021-1.057L196.213,199a.663.663,0,0,0,.931-.026l3.721-4.031C201.494,194.265,202.592,195.241,201.945,195.943Z" transform="translate(-178.815 -176.592)"/></g></g></svg>