<svg xmlns="http://www.w3.org/2000/svg" width="23.93" height="23.93" viewBox="0 0 23.93 23.93"><defs><style>.a{fill:#fdc403;}</style></defs><path class="a" d="M171,362h3.272v7.011H171Z" transform="translate(-163.008 -345.081)"/><path class="a" d="M60.081,265.153h-.058a4.377,4.377,0,0,1-2.991-1.178,4.386,4.386,0,0,1-5.983,0,4.386,4.386,0,0,1-5.983,0,4.377,4.377,0,0,1-2.991,1.178h-.058A4.362,4.362,0,0,1,41,265.02v8.912a1.638,1.638,0,0,0,1.636,1.636h3.038v-7.011H45.44a.7.7,0,0,1,0-1.4H56.657a.7.7,0,0,1,0,1.4h-.234v7.011h3.038a1.638,1.638,0,0,0,1.636-1.636V265.02A4.368,4.368,0,0,1,60.081,265.153Z" transform="translate(-39.084 -251.637)"/><path class="a" d="M271,362h3.272v7.011H271Z" transform="translate(-258.334 -345.081)"/><path class="a" d="M146.741,5.952h4.406V.019c0-.006,0-.013,0-.019h-3.093a.7.7,0,0,1-.016.173Z" transform="translate(-139.883 0)"/><path class="a" d="M275.386,5.952l-1.3-5.779A.7.7,0,0,1,274.073,0H270.98c0,.006,0,.013,0,.019V5.952Z" transform="translate(-258.315)"/><path class="a" d="M2.952,162.1h.04A2.985,2.985,0,0,0,5.3,161.005l-.019-3.666H0v1.724A3.02,3.02,0,0,0,2.952,162.1Z" transform="translate(0 -149.985)"/><path class="a" d="M367.414,0l1.336,5.952h5.107l-2.4-5.365A.993.993,0,0,0,370.55,0Z" transform="translate(-350.242 0)"/><path class="a" d="M11.75,5.952,13.086,0H9.951a.993.993,0,0,0-.906.587L6.639,5.952Z" transform="translate(-6.329 0)"/><path class="a" d="M147.653,161.032V157.34h-4.577l.019,3.718a2.99,2.99,0,0,0,4.558-.026Z" transform="translate(-136.389 -149.986)"/><path class="a" d="M275.558,161.059l.019-3.718H271v3.692a2.989,2.989,0,0,0,4.558.026Z" transform="translate(-258.334 -149.987)"/><path class="a" d="M403.832,159.064V157.34h-5.285l-.018,3.667a2.985,2.985,0,0,0,2.312,1.094h.04A3.02,3.02,0,0,0,403.832,159.064Z" transform="translate(-379.901 -149.986)"/></svg>