<svg xmlns="http://www.w3.org/2000/svg" width="122.732" height="122.732" viewBox="0 0 122.732 122.732"><defs><style>.a{fill:#0f0c75;}</style></defs><g transform="translate(0)"><g transform="translate(0)"><path class="a" d="M104.758,17.973A61.366,61.366,0,0,0,61.365,0a1.98,1.98,0,0,0-1.98,1.98V17.816a1.98,1.98,0,1,0,3.959,0V3.993A57.407,57.407,0,1,1,20.772,20.774a1.98,1.98,0,0,0-2.8-2.8,61.366,61.366,0,1,0,86.785,0Z" transform="translate(0)"/></g><g transform="translate(25.815 25.816)"><path class="a" d="M139.876,131.962a7.813,7.813,0,0,0-4,1.122l-28.2-28.2a1.98,1.98,0,0,0-2.8,2.8l28.2,28.2a7.812,7.812,0,0,0-1.122,4,7.918,7.918,0,1,0,7.918-7.918Zm0,11.877a3.959,3.959,0,1,1,3.959-3.959A3.959,3.959,0,0,1,139.876,143.84Z" transform="translate(-104.325 -104.331)"/></g></g></svg>