<svg xmlns="http://www.w3.org/2000/svg" width="38.189" height="36.313" viewBox="0 0 38.189 36.313"><defs><style>.a{fill:#0f0c75;}.b{fill:#fdc403;}</style></defs><g transform="translate(0 -0.148)"><path class="a" d="M48.13,181.628a.682.682,0,0,1-.531-.254l-15.19-18.838a.682.682,0,0,1,.531-1.111H63.32a.682.682,0,0,1,.531,1.11l-15.19,18.838A.681.681,0,0,1,48.13,181.628ZM34.366,162.79,48.13,179.86l13.764-17.07Zm0,0" transform="translate(-29.037 -145.167)"/><path class="a" d="M63.319,82.909a.682.682,0,0,1-.591-.34l-4.936-8.525H38.465l-4.936,8.525a.682.682,0,0,1-1.18-.683l5.134-8.865a.682.682,0,0,1,.59-.34H58.185a.682.682,0,0,1,.59.34l5.133,8.865a.682.682,0,0,1-.589,1.024Zm0,0" transform="translate(-29.035 -65.286)"/><path class="a" d="M133.157,102.823a.683.683,0,0,1-.652-.483L126.751,83.5a.682.682,0,0,1,.082-.574l5.754-8.746a.7.7,0,0,1,.58-.307.682.682,0,0,1,.57.325l5.37,8.746a.683.683,0,0,1,.075.544l-5.37,18.838a.682.682,0,0,1-.65.495ZM128.149,83.41l4.985,16.323L137.789,83.4l-4.652-7.576Zm0,0" transform="translate(-114.063 -66.361)"/><path class="b" d="M185,4.274a.682.682,0,0,1-.682-.682V.83a.682.682,0,0,1,1.364,0V3.592A.682.682,0,0,1,185,4.274Zm0,0" transform="translate(-165.908)"/><path class="b" d="M290.984,22.243a.682.682,0,0,1-.584-1.032l1.381-2.3a.682.682,0,1,1,1.169.7l-1.381,2.3A.681.681,0,0,1,290.984,22.243Zm0,0" transform="translate(-261.303 -16.588)"/><path class="b" d="M350.888,82.15a.682.682,0,0,1-.532-1.108l1.841-2.3a.682.682,0,1,1,1.065.852l-1.841,2.3A.68.68,0,0,1,350.888,82.15Zm0,0" transform="translate(-315.224 -70.511)"/><path class="b" d="M66.575,22.245a.682.682,0,0,1-.586-.331l-1.381-2.3a.682.682,0,1,1,1.169-.7l1.381,2.3a.682.682,0,0,1-.584,1.032Zm0,0" transform="translate(-58.068 -16.59)"/><path class="b" d="M2.523,82.148a.68.68,0,0,1-.533-.256l-1.841-2.3a.682.682,0,0,1,1.065-.852l1.841,2.3a.682.682,0,0,1-.532,1.108Zm0,0" transform="translate(0 -70.509)"/></g></svg>